solid untitled
facet normal -1.0 0.0 0.0
outer loop
vertex 8.29999999999991 16.6 14.4537492985135
vertex 8.29999999999991 8.29999999999998 4.66
vertex 8.29999999999991 8.29999999999998 14.4537492985135
endloop
endfacet
facet normal -1.0 0.0 0.0
outer loop
vertex 8.29999999999991 8.29999999999998 4.66
vertex 8.29999999999991 16.6 14.4537492985135
vertex 8.29999999999991 16.6 4.66
endloop
endfacet
facet normal 0.0 1.0 0.0
outer loop
vertex 0.0 8.29999999999998 14.4537492985135
vertex 8.29999999999991 8.29999999999998 4.66
vertex 0.0 8.29999999999998 4.66
endloop
endfacet
facet normal 0.0 1.0 0.0
outer loop
vertex 8.29999999999991 8.29999999999998 4.66
vertex 0.0 8.29999999999998 14.4537492985135
vertex 8.29999999999991 8.29999999999998 14.4537492985135
endloop
endfacet
facet normal 0.0 0.0 1.0
outer loop
vertex 8.29999999999991 8.29999999999998 4.66
vertex 0.0 16.6 4.66
vertex 0.0 8.29999999999998 4.66
endloop
endfacet
facet normal 0.0 0.0 1.0
outer loop
vertex 0.0 16.6 4.66
vertex 8.29999999999991 8.29999999999998 4.66
vertex 8.29999999999991 16.6 4.66
endloop
endfacet
facet normal 1.98411362761265e-016 2.69067272196755e-015 1.0
outer loop
vertex 9.44879684185253 7.15120315814729 14.4537492985135
vertex 0.0 8.29999999999998 14.4537492985135
vertex 0.0 7.15120315814729 14.4537492985135
endloop
endfacet
facet normal 1.98411362761265e-016 2.69067272196755e-015 1.0
outer loop
vertex 0.0 8.29999999999998 14.4537492985135
vertex 9.44879684185253 7.15120315814729 14.4537492985135
vertex 8.29999999999991 8.29999999999998 14.4537492985135
endloop
endfacet
facet normal 1.98411362761265e-016 2.69067272196755e-015 1.0
outer loop
vertex 8.29999999999991 8.29999999999998 14.4537492985135
vertex 9.44879684185253 7.15120315814729 14.4537492985135
vertex 8.29999999999991 16.6 14.4537492985135
endloop
endfacet
facet normal 1.98411362761265e-016 2.69067272196755e-015 1.0
outer loop
vertex 8.29999999999991 16.6 14.4537492985135
vertex 9.44879684185253 7.15120315814729 14.4537492985135
vertex 9.44879684185253 16.6 14.4537492985135
endloop
endfacet
facet normal 0.848244190899583 3.83892618641092e-016 0.529605317765136
outer loop
vertex 16.6000000000001 16.6 3.0
vertex 9.44879684185253 7.15120315814729 14.4537492985135
vertex 16.6000000000001 0.0 3.0
endloop
endfacet
facet normal 0.848244190899583 3.83892618641092e-016 0.529605317765136
outer loop
vertex 9.44879684185253 7.15120315814729 14.4537492985135
vertex 16.6000000000001 16.6 3.0
vertex 9.44879684185253 16.6 14.4537492985135
endloop
endfacet
facet normal -0.0 1.0 -0.0
outer loop
vertex 0.0 16.6 4.66
vertex 16.6000000000001 16.6 0.0
vertex 0.0 16.6 0.0
endloop
endfacet
facet normal -0.0 1.0 -0.0
outer loop
vertex 16.6000000000001 16.6 0.0
vertex 0.0 16.6 4.66
vertex 16.6000000000001 16.6 3.0
endloop
endfacet
facet normal -0.0 1.0 -0.0
outer loop
vertex 16.6000000000001 16.6 3.0
vertex 0.0 16.6 4.66
vertex 8.29999999999991 16.6 4.66
endloop
endfacet
facet normal -0.0 1.0 -0.0
outer loop
vertex 16.6000000000001 16.6 3.0
vertex 8.29999999999991 16.6 4.66
vertex 9.44879684185253 16.6 14.4537492985135
endloop
endfacet
facet normal -0.0 1.0 -0.0
outer loop
vertex 9.44879684185253 16.6 14.4537492985135
vertex 8.29999999999991 16.6 4.66
vertex 8.29999999999991 16.6 14.4537492985135
endloop
endfacet
facet normal -2.55928412427398e-017 -0.848244190899594 0.529605317765119
outer loop
vertex 9.44879684185253 7.15120315814729 14.4537492985135
vertex 0.0 0.0 3.0
vertex 16.6000000000001 0.0 3.0
endloop
endfacet
facet normal -2.55928412427398e-017 -0.848244190899594 0.529605317765119
outer loop
vertex 0.0 0.0 3.0
vertex 9.44879684185253 7.15120315814729 14.4537492985135
vertex 0.0 7.15120315814729 14.4537492985135
endloop
endfacet
facet normal -1.0 0.0 0.0
outer loop
vertex 0.0 7.15120315814729 14.4537492985135
vertex 0.0 0.0 0.0
vertex 0.0 0.0 3.0
endloop
endfacet
facet normal -1.0 0.0 0.0
outer loop
vertex 0.0 0.0 0.0
vertex 0.0 7.15120315814729 14.4537492985135
vertex 0.0 8.29999999999998 4.66
endloop
endfacet
facet normal -1.0 0.0 0.0
outer loop
vertex 0.0 0.0 0.0
vertex 0.0 8.29999999999998 4.66
vertex 0.0 16.6 0.0
endloop
endfacet
facet normal -1.0 0.0 0.0
outer loop
vertex 0.0 8.29999999999998 4.66
vertex 0.0 7.15120315814729 14.4537492985135
vertex 0.0 8.29999999999998 14.4537492985135
endloop
endfacet
facet normal -1.0 0.0 0.0
outer loop
vertex 0.0 16.6 0.0
vertex 0.0 8.29999999999998 4.66
vertex 0.0 16.6 4.66
endloop
endfacet
facet normal 0.0 0.0 -1.0
outer loop
vertex 16.6000000000001 16.6 0.0
vertex 0.0 0.0 0.0
vertex 0.0 16.6 0.0
endloop
endfacet
facet normal 0.0 0.0 -1.0
outer loop
vertex 0.0 0.0 0.0
vertex 16.6000000000001 16.6 0.0
vertex 16.6000000000001 0.0 0.0
endloop
endfacet
facet normal 1.0 0.0 0.0
outer loop
vertex 16.6000000000001 16.6 0.0
vertex 16.6000000000001 0.0 3.0
vertex 16.6000000000001 0.0 0.0
endloop
endfacet
facet normal 1.0 0.0 0.0
outer loop
vertex 16.6000000000001 0.0 3.0
vertex 16.6000000000001 16.6 0.0
vertex 16.6000000000001 16.6 3.0
endloop
endfacet
facet normal 0.0 -1.0 0.0
outer loop
vertex 16.6000000000001 0.0 3.0
vertex 0.0 0.0 0.0
vertex 16.6000000000001 0.0 0.0
endloop
endfacet
facet normal 0.0 -1.0 0.0
outer loop
vertex 0.0 0.0 0.0
vertex 16.6000000000001 0.0 3.0
vertex 0.0 0.0 3.0
endloop
endfacet
endsolid untitled
