solid untitled
facet normal -0.990000197092856 0.141065976607072 0.0
outer loop
vertex 0.743045123840274 8.11790800517174 9.99999999999997
vertex 0.708524790269604 7.80570306421695 0.0
vertex 0.708524790269604 7.80570306421695 9.99999999999998
endloop
endfacet
facet normal -0.996904263806996 0.0786249884161011 0.0
outer loop
vertex 0.708524790269604 7.80570306421695 0.0
vertex 0.743045123840274 8.11790800517174 9.99999999999997
vertex 0.743045123840274 8.11790800517174 0.0
endloop
endfacet
facet normal 0.990000197092856 -0.141065976607071 0.0
outer loop
vertex 10.6430470947688 6.70724823910183 0.0
vertex 10.6775674283395 7.01945318005663 9.99999999999997
vertex 10.6430470947688 6.70724823910183 9.99999999999998
endloop
endfacet
facet normal 0.996904263806996 -0.0786249884161018 0.0
outer loop
vertex 10.6775674283395 7.01945318005663 9.99999999999997
vertex 10.6430470947688 6.70724823910183 0.0
vertex 10.6775674283395 7.01945318005663 -4.51194637207664e-014
endloop
endfacet
facet normal 0.883843484532465 0.467782743214742 0.0
outer loop
vertex 10.1122635319669 9.75149183821012 0.0
vertex 10.2504048232241 9.4693915683835 9.99999999999998
vertex 10.2504048232241 9.4693915683835 0.0
endloop
endfacet
facet normal 0.911471742783901 0.411362689249375 0.0
outer loop
vertex 10.2504048232241 9.4693915683835 9.99999999999998
vertex 10.1122635319669 9.75149183821012 0.0
vertex 10.1122635319669 9.75149183821012 9.99999999999999
endloop
endfacet
facet normal 0.0 0.0 -1.0
outer loop
vertex 0.708524790269604 7.80570306421695 0.0
vertex 0.698557609488812 7.17787698194306 -4.51194637207664e-014
vertex 0.693676085133941 7.49194663871746 -4.51194637207664e-014
endloop
endfacet
facet normal 0.0 0.0 -1.0
outer loop
vertex 0.698557609488812 7.17787698194306 -4.51194637207664e-014
vertex 0.708524790269604 7.80570306421695 0.0
vertex 0.723150098187695 6.86473358334425 -4.51194637207664e-014
endloop
endfacet
facet normal 0.0 0.0 -1.0
outer loop
vertex 0.723150098187695 6.86473358334425 -4.51194637207664e-014
vertex 0.708524790269604 7.80570306421695 0.0
vertex 0.743045123840274 8.11790800517174 0.0
endloop
endfacet
facet normal 0.0 0.0 -1.0
outer loop
vertex 0.723150098187695 6.86473358334425 -4.51194637207664e-014
vertex 0.743045123840274 8.11790800517174 0.0
vertex 0.767356495913015 6.55375227685369 0.0
endloop
endfacet
facet normal 0.0 0.0 -1.0
outer loop
vertex 0.767356495913015 6.55375227685369 0.0
vertex 0.743045123840274 8.11790800517174 0.0
vertex 0.797100849860284 8.42732933131278 0.0
endloop
endfacet
facet normal 0.0 0.0 -1.0
outer loop
vertex 0.767356495913015 6.55375227685369 0.0
vertex 0.797100849860284 8.42732933131278 0.0
vertex 0.831002340208802 6.24616036361425 0.0
endloop
endfacet
facet normal 0.0 0.0 -1.0
outer loop
vertex 0.831002340208802 6.24616036361425 0.0
vertex 0.797100849860284 8.42732933131278 0.0
vertex 0.870478635074681 8.73274589802692 -4.51194637207664e-014
endloop
endfacet
facet normal 0.0 0.0 -1.0
outer loop
vertex 0.831002340208802 6.24616036361425 0.0
vertex 0.870478635074681 8.73274589802692 -4.51194637207664e-014
vertex 0.913836450004794 5.94317176838213 -4.51194637207664e-014
endloop
endfacet
facet normal 0.0 0.0 -1.0
outer loop
vertex 0.913836450004794 5.94317176838213 -4.51194637207664e-014
vertex 0.870478635074681 8.73274589802692 -4.51194637207664e-014
vertex 0.962888890888239 9.03295236565691 0.0
endloop
endfacet
facet normal 0.0 0.0 -1.0
outer loop
vertex 0.913836450004794 5.94317176838213 -4.51194637207664e-014
vertex 0.962888890888239 9.03295236565691 0.0
vertex 1.01553191691271 5.64598224872036 0.0
endloop
endfacet
facet normal 0.0 0.0 -1.0
outer loop
vertex 1.01553191691271 5.64598224872036 0.0
vertex 0.962888890888239 9.03295236565691 0.0
vertex 1.07396691623967 9.32676395642631 -4.51194637207664e-014
endloop
endfacet
facet normal 0.0 0.0 -1.0
outer loop
vertex 1.01553191691271 5.64598224872036 0.0
vertex 1.07396691623967 9.32676395642631 -4.51194637207664e-014
vertex 1.13568739538501 5.35576467589008 0.0
endloop
endfacet
facet normal 0.0 0.0 -1.0
outer loop
vertex 1.13568739538501 5.35576467589008 0.0
vertex 1.07396691623967 9.32676395642631 -4.51194637207664e-014
vertex 1.20327433690962 9.61302113021608 -4.51194637207664e-014
endloop
endfacet
facet normal 0.0 0.0 -1.0
outer loop
vertex 1.13568739538501 5.35576467589008 0.0
vertex 1.20327433690962 9.61302113021608 -4.51194637207664e-014
vertex 1.27382868664215 5.07366440606346 0.0
endloop
endfacet
facet normal 0.0 0.0 -1.0
outer loop
vertex 1.27382868664215 5.07366440606346 0.0
vertex 1.20327433690962 9.61302113021608 -4.51194637207664e-014
vertex 1.35030083558357 9.89059416073975 -4.51194637207664e-014
endloop
endfacet
facet normal 0.0 0.0 -1.0
outer loop
vertex 1.27382868664215 5.07366440606346 0.0
vertex 1.35030083558357 9.89059416073975 -4.51194637207664e-014
vertex 1.42941061011803 4.80079476012614 0.0
endloop
endfacet
facet normal 0.0 0.0 -1.0
outer loop
vertex 1.42941061011803 4.80079476012614 0.0
vertex 1.35030083558357 9.89059416073975 -4.51194637207664e-014
vertex 1.51446616584139 10.1583875940569 0.0
endloop
endfacet
facet normal 0.0 0.0 -1.0
outer loop
vertex 1.42941061011803 4.80079476012614 0.0
vertex 1.51446616584139 10.1583875940569 0.0
vertex 1.60181915503937 4.53823262990837 -4.51194637207664e-014
endloop
endfacet
facet normal 0.0 0.0 -1.0
outer loop
vertex 1.60181915503937 4.53823262990837 -4.51194637207664e-014
vertex 1.51446616584139 10.1583875940569 0.0
vertex 1.69512244212424 10.4153445718294 -4.51194637207664e-014
endloop
endfacet
facet normal 0.0 0.0 -1.0
outer loop
vertex 1.60181915503937 4.53823262990837 -4.51194637207664e-014
vertex 1.69512244212424 10.4153445718294 -4.51194637207664e-014
vertex 1.79037390364556 4.28701422818487 0.0
endloop
endfacet
facet normal 0.0 0.0 -1.0
outer loop
vertex 1.79037390364556 4.28701422818487 0.0
vertex 1.69512244212424 10.4153445718294 -4.51194637207664e-014
vertex 1.89155669664413 10.6604510022585 0.0
endloop
endfacet
facet normal 0.0 0.0 -1.0
outer loop
vertex 1.79037390364556 4.28701422818487 0.0
vertex 1.89155669664413 10.6604510022585 0.0
vertex 1.994330716486 4.04813099921649 0.0
endloop
endfacet
facet normal 0.0 0.0 -1.0
outer loop
vertex 1.994330716486 4.04813099921649 0.0
vertex 1.89155669664413 10.6604510022585 0.0
vertex 2.1029936931403 10.8927395622417 -4.51194637207664e-014
endloop
endfacet
facet normal 0.0 0.0 -1.0
outer loop
vertex 1.994330716486 4.04813099921649 0.0
vertex 2.1029936931403 10.8927395622417 -4.51194637207664e-014
vertex 2.2128846691996 3.82252570597258 -4.51194637207664e-014
endloop
endfacet
facet normal 0.0 0.0 -1.0
outer loop
vertex 2.2128846691996 3.82252570597258 -4.51194637207664e-014
vertex 2.1029936931403 10.8927395622417 -4.51194637207664e-014
vertex 2.32859898638429 11.1112935149553 0.0
endloop
endfacet
facet normal 0.0 0.0 -1.0
outer loop
vertex 2.2128846691996 3.82252570597258 -4.51194637207664e-014
vertex 2.32859898638429 11.1112935149553 0.0
vertex 2.44517322918296 3.61108870947634 0.0
endloop
endfacet
facet normal 0.0 0.0 -1.0
outer loop
vertex 2.44517322918296 3.61108870947634 0.0
vertex 2.32859898638429 11.1112935149553 0.0
vertex 2.5674822153526 11.3152503277958 0.0
endloop
endfacet
facet normal 0.0 0.0 -1.0
outer loop
vertex 2.44517322918296 3.61108870947634 0.0
vertex 2.5674822153526 11.3152503277958 0.0
vertex 2.69027965961201 3.41465445495657 0.0
endloop
endfacet
facet normal 0.0 0.0 -1.0
outer loop
vertex 2.69027965961201 3.41465445495657 0.0
vertex 2.5674822153526 11.3152503277958 0.0
vertex 2.81870061707606 11.5038050764019 0.0
endloop
endfacet
facet normal 0.0 0.0 -1.0
outer loop
vertex 2.69027965961201 3.41465445495657 0.0
vertex 2.81870061707606 11.5038050764019 0.0
vertex 2.94723663738452 3.23399817867356 0.0
endloop
endfacet
facet normal 0.0 0.0 -1.0
outer loop
vertex 2.94723663738452 3.23399817867356 0.0
vertex 2.81870061707606 11.5038050764019 0.0
vertex 3.08126274729386 11.6762136213233 0.0
endloop
endfacet
facet normal 0.0 0.0 -1.0
outer loop
vertex 2.94723663738452 3.23399817867356 0.0
vertex 3.08126274729386 11.6762136213233 0.0
vertex 3.21503007070156 3.06983284841582 -4.51194637207664e-014
endloop
endfacet
facet normal 0.0 0.0 -1.0
outer loop
vertex 3.21503007070156 3.06983284841582 -4.51194637207664e-014
vertex 3.08126274729386 11.6762136213233 0.0
vertex 3.35413239323131 11.8317955447992 0.0
endloop
endfacet
facet normal 0.0 0.0 -1.0
outer loop
vertex 3.21503007070156 3.06983284841582 -4.51194637207664e-014
vertex 3.35413239323131 11.8317955447992 0.0
vertex 3.49260310122527 2.92280634974186 0.0
endloop
endfacet
facet normal 0.0 0.0 -1.0
outer loop
vertex 3.49260310122527 2.92280634974186 0.0
vertex 3.35413239323131 11.8317955447992 0.0
vertex 3.63623266305782 11.9699368360563 -4.51194637207664e-014
endloop
endfacet
facet normal 0.0 0.0 -1.0
outer loop
vertex 3.49260310122527 2.92280634974186 0.0
vertex 3.63623266305782 11.9699368360563 -4.51194637207664e-014
vertex 3.77886027501506 2.79349892907193 0.0
endloop
endfacet
facet normal 0.0 0.0 -1.0
outer loop
vertex 3.77886027501506 2.79349892907193 0.0
vertex 3.63623266305782 11.9699368360563 -4.51194637207664e-014
vertex 3.92645023588811 12.0900923145287 -4.51194637207664e-014
endloop
endfacet
facet normal 0.0 0.0 -1.0
outer loop
vertex 3.77886027501506 2.79349892907193 0.0
vertex 3.92645023588811 12.0900923145287 -4.51194637207664e-014
vertex 4.07267186578436 2.68242090372048 0.0
endloop
endfacet
facet normal 0.0 0.0 -1.0
outer loop
vertex 4.07267186578436 2.68242090372048 0.0
vertex 3.92645023588811 12.0900923145287 -4.51194637207664e-014
vertex 4.22363975554985 12.1917877814366 0.0
endloop
endfacet
facet normal 0.0 0.0 -1.0
outer loop
vertex 4.07267186578436 2.68242090372048 0.0
vertex 4.22363975554985 12.1917877814366 0.0
vertex 4.37287833341439 2.59001064790684 -4.51194637207664e-014
endloop
endfacet
facet normal 0.0 0.0 -1.0
outer loop
vertex 4.37287833341439 2.59001064790684 -4.51194637207664e-014
vertex 4.22363975554985 12.1917877814366 0.0
vertex 4.52662835078203 12.2746218912325 0.0
endloop
endfacet
facet normal 0.0 0.0 -1.0
outer loop
vertex 4.37287833341439 2.59001064790684 -4.51194637207664e-014
vertex 4.52662835078203 12.2746218912325 0.0
vertex 4.6782949001286 2.51663286269248 0.0
endloop
endfacet
facet normal 0.0 0.0 -1.0
outer loop
vertex 4.6782949001286 2.51663286269248 0.0
vertex 4.52662835078203 12.2746218912325 0.0
vertex 4.83422026402145 12.3382677355283 0.0
endloop
endfacet
facet normal 0.0 0.0 -1.0
outer loop
vertex 4.6782949001286 2.51663286269248 0.0
vertex 4.83422026402145 12.3382677355283 0.0
vertex 4.98771622626963 2.46257713667252 -4.51194637207664e-014
endloop
endfacet
facet normal 0.0 0.0 -1.0
outer loop
vertex 4.98771622626963 2.46257713667252 -4.51194637207664e-014
vertex 4.83422026402145 12.3382677355283 0.0
vertex 5.145201570512 12.3824741332536 0.0
endloop
endfacet
facet normal 0.0 0.0 -1.0
outer loop
vertex 4.98771622626963 2.46257713667252 -4.51194637207664e-014
vertex 5.145201570512 12.3824741332536 0.0
vertex 5.29992116722433 2.42805680310185 -4.51194637207664e-014
endloop
endfacet
facet normal 0.0 0.0 -1.0
outer loop
vertex 5.29992116722433 2.42805680310185 -4.51194637207664e-014
vertex 5.145201570512 12.3824741332536 0.0
vertex 5.45834496911083 12.4070666219525 -4.51194637207664e-014
endloop
endfacet
facet normal 0.0 0.0 -1.0
outer loop
vertex 5.29992116722433 2.42805680310185 -4.51194637207664e-014
vertex 5.45834496911083 12.4070666219525 -4.51194637207664e-014
vertex 5.61367759272394 2.41320809796624 0.0
endloop
endfacet
facet normal 0.0 0.0 -1.0
outer loop
vertex 5.61367759272394 2.41320809796624 0.0
vertex 5.45834496911083 12.4070666219525 -4.51194637207664e-014
vertex 5.77241462588515 12.4119481463073 -4.51194637207664e-014
endloop
endfacet
facet normal 0.0 0.0 -1.0
outer loop
vertex 5.61367759272394 2.41320809796624 0.0
vertex 5.77241462588515 12.4119481463073 -4.51194637207664e-014
vertex 5.92774724949826 2.41808962232111 -4.51194637207664e-014
endloop
endfacet
facet normal 0.0 0.0 -1.0
outer loop
vertex 5.92774724949826 2.41808962232111 -4.51194637207664e-014
vertex 5.77241462588515 12.4119481463073 -4.51194637207664e-014
vertex 6.08617105138476 12.3970994411717 0.0
endloop
endfacet
facet normal 0.0 0.0 -1.0
outer loop
vertex 5.92774724949826 2.41808962232111 -4.51194637207664e-014
vertex 6.08617105138476 12.3970994411717 0.0
vertex 6.24089064809709 2.44268211102001 0.0
endloop
endfacet
facet normal 0.0 0.0 -1.0
outer loop
vertex 6.24089064809709 2.44268211102001 0.0
vertex 6.08617105138476 12.3970994411717 0.0
vertex 6.39837599233946 12.3625791076011 -4.51194637207664e-014
endloop
endfacet
facet normal 0.0 0.0 -1.0
outer loop
vertex 6.24089064809709 2.44268211102001 0.0
vertex 6.39837599233946 12.3625791076011 -4.51194637207664e-014
vertex 6.55187195458764 2.48688850874527 0.0
endloop
endfacet
facet normal 0.0 0.0 -1.0
outer loop
vertex 6.55187195458764 2.48688850874527 0.0
vertex 6.39837599233946 12.3625791076011 -4.51194637207664e-014
vertex 6.70779731848049 12.3085233815811 0.0
endloop
endfacet
facet normal 0.0 0.0 -1.0
outer loop
vertex 6.55187195458764 2.48688850874527 0.0
vertex 6.70779731848049 12.3085233815811 0.0
vertex 6.85946386782706 2.55053435304106 -4.51194637207664e-014
endloop
endfacet
facet normal 0.0 0.0 -1.0
outer loop
vertex 6.85946386782706 2.55053435304106 -4.51194637207664e-014
vertex 6.70779731848049 12.3085233815811 0.0
vertex 7.01321388519469 12.2351455963667 0.0
endloop
endfacet
facet normal 0.0 0.0 -1.0
outer loop
vertex 6.85946386782706 2.55053435304106 -4.51194637207664e-014
vertex 7.01321388519469 12.2351455963667 0.0
vertex 7.16245246305924 2.63336846283697 0.0
endloop
endfacet
facet normal 0.0 0.0 -1.0
outer loop
vertex 7.16245246305924 2.63336846283697 0.0
vertex 7.01321388519469 12.2351455963667 0.0
vertex 7.31342035282472 12.1427353405531 0.0
endloop
endfacet
facet normal 0.0 0.0 -1.0
outer loop
vertex 7.16245246305924 2.63336846283697 0.0
vertex 7.31342035282472 12.1427353405531 0.0
vertex 7.45964198272098 2.73506392974492 0.0
endloop
endfacet
facet normal 0.0 0.0 -1.0
outer loop
vertex 7.45964198272098 2.73506392974492 0.0
vertex 7.31342035282472 12.1427353405531 0.0
vertex 7.60723194359403 12.0316573152016 0.0
endloop
endfacet
facet normal 0.0 0.0 -1.0
outer loop
vertex 7.45964198272098 2.73506392974492 0.0
vertex 7.60723194359403 12.0316573152016 0.0
vertex 7.74985955555127 2.85521940821728 0.0
endloop
endfacet
facet normal 0.0 0.0 -1.0
outer loop
vertex 7.74985955555127 2.85521940821728 0.0
vertex 7.60723194359403 12.0316573152016 0.0
vertex 7.89348911738382 11.9023498945317 0.0
endloop
endfacet
facet normal 0.0 0.0 -1.0
outer loop
vertex 7.74985955555127 2.85521940821728 0.0
vertex 7.89348911738382 11.9023498945317 0.0
vertex 8.03195982537796 2.99336069947434 0.0
endloop
endfacet
facet normal 0.0 0.0 -1.0
outer loop
vertex 8.03195982537796 2.99336069947434 0.0
vertex 7.89348911738382 11.9023498945317 0.0
vertex 8.17106214790753 11.7553233958578 0.0
endloop
endfacet
facet normal 0.0 0.0 -1.0
outer loop
vertex 8.03195982537796 2.99336069947434 0.0
vertex 8.17106214790753 11.7553233958578 0.0
vertex 8.30482947131523 3.14894262295025 -4.51194637207664e-014
endloop
endfacet
facet normal 0.0 0.0 -1.0
outer loop
vertex 8.30482947131523 3.14894262295025 -4.51194637207664e-014
vertex 8.17106214790753 11.7553233958578 0.0
vertex 8.43885558122457 11.5911580656 0.0
endloop
endfacet
facet normal 0.0 0.0 -1.0
outer loop
vertex 8.30482947131523 3.14894262295025 -4.51194637207664e-014
vertex 8.43885558122457 11.5911580656 0.0
vertex 8.56739160153303 3.32135116787167 0.0
endloop
endfacet
facet normal 0.0 0.0 -1.0
outer loop
vertex 8.56739160153303 3.32135116787167 0.0
vertex 8.43885558122457 11.5911580656 0.0
vertex 8.69581255899708 11.410501789317 -4.51194637207664e-014
endloop
endfacet
facet normal 0.0 0.0 -1.0
outer loop
vertex 8.56739160153303 3.32135116787167 0.0
vertex 8.69581255899708 11.410501789317 -4.51194637207664e-014
vertex 8.81861000325649 3.50990591647777 -4.51194637207664e-014
endloop
endfacet
facet normal 0.0 0.0 -1.0
outer loop
vertex 8.81861000325649 3.50990591647777 -4.51194637207664e-014
vertex 8.69581255899708 11.410501789317 -4.51194637207664e-014
vertex 8.94091898942631 11.2140675347972 -4.51194637207664e-014
endloop
endfacet
facet normal 0.0 0.0 -1.0
outer loop
vertex 8.81861000325649 3.50990591647777 -4.51194637207664e-014
vertex 8.94091898942631 11.2140675347972 -4.51194637207664e-014
vertex 9.0574932322248 3.71386272931828 0.0
endloop
endfacet
facet normal 0.0 0.0 -1.0
outer loop
vertex 9.0574932322248 3.71386272931828 0.0
vertex 8.94091898942631 11.2140675347972 -4.51194637207664e-014
vertex 9.17320754940948 11.002630538301 -4.51194637207664e-014
endloop
endfacet
facet normal 0.0 0.0 -1.0
outer loop
vertex 9.0574932322248 3.71386272931828 0.0
vertex 9.17320754940948 11.002630538301 -4.51194637207664e-014
vertex 9.28309852546879 3.93241668203191 0.0
endloop
endfacet
facet normal 0.0 0.0 -1.0
outer loop
vertex 9.28309852546879 3.93241668203191 0.0
vertex 9.17320754940948 11.002630538301 -4.51194637207664e-014
vertex 9.39176150212309 10.7770252450571 -4.51194637207664e-014
endloop
endfacet
facet normal 0.0 0.0 -1.0
outer loop
vertex 9.28309852546879 3.93241668203191 0.0
vertex 9.39176150212309 10.7770252450571 -4.51194637207664e-014
vertex 9.49453552196496 4.16470524201511 0.0
endloop
endfacet
facet normal 0.0 0.0 -1.0
outer loop
vertex 9.49453552196496 4.16470524201511 0.0
vertex 9.39176150212309 10.7770252450571 -4.51194637207664e-014
vertex 9.59571831496353 10.5381420160887 -4.51194637207664e-014
endloop
endfacet
facet normal 0.0 0.0 -1.0
outer loop
vertex 9.49453552196496 4.16470524201511 0.0
vertex 9.59571831496353 10.5381420160887 -4.51194637207664e-014
vertex 9.69096977648485 4.40981167244418 0.0
endloop
endfacet
facet normal 0.0 0.0 -1.0
outer loop
vertex 9.69096977648485 4.40981167244418 0.0
vertex 9.59571831496353 10.5381420160887 -4.51194637207664e-014
vertex 9.78427306356972 10.2869236143652 -4.51194637207664e-014
endloop
endfacet
facet normal 0.0 0.0 -1.0
outer loop
vertex 9.69096977648485 4.40981167244418 0.0
vertex 9.78427306356972 10.2869236143652 -4.51194637207664e-014
vertex 9.8716260527677 4.66676865021668 -4.51194637207664e-014
endloop
endfacet
facet normal 0.0 0.0 -1.0
outer loop
vertex 9.8716260527677 4.66676865021668 -4.51194637207664e-014
vertex 9.78427306356972 10.2869236143652 -4.51194637207664e-014
vertex 9.95668160849106 10.0243614841474 0.0
endloop
endfacet
facet normal 0.0 0.0 -1.0
outer loop
vertex 9.8716260527677 4.66676865021668 -4.51194637207664e-014
vertex 9.95668160849106 10.0243614841474 0.0
vertex 10.0357913830255 4.93456208353383 -4.51194637207664e-014
endloop
endfacet
facet normal 0.0 0.0 -1.0
outer loop
vertex 10.0357913830255 4.93456208353383 -4.51194637207664e-014
vertex 9.95668160849106 10.0243614841474 0.0
vertex 10.1122635319669 9.75149183821012 0.0
endloop
endfacet
facet normal 0.0 0.0 -1.0
outer loop
vertex 10.0357913830255 4.93456208353383 -4.51194637207664e-014
vertex 10.1122635319669 9.75149183821012 0.0
vertex 10.1828178816995 5.2121351140575 -4.51194637207664e-014
endloop
endfacet
facet normal 0.0 0.0 -1.0
outer loop
vertex 10.1828178816995 5.2121351140575 -4.51194637207664e-014
vertex 10.1122635319669 9.75149183821012 0.0
vertex 10.2504048232241 9.4693915683835 0.0
endloop
endfacet
facet normal 0.0 0.0 -1.0
outer loop
vertex 10.1828178816995 5.2121351140575 -4.51194637207664e-014
vertex 10.2504048232241 9.4693915683835 0.0
vertex 10.3121253023694 5.49839228784727 -4.51194637207664e-014
endloop
endfacet
facet normal 0.0 0.0 -1.0
outer loop
vertex 10.3121253023694 5.49839228784727 -4.51194637207664e-014
vertex 10.2504048232241 9.4693915683835 0.0
vertex 10.3705603016964 9.17917399555322 -4.51194637207664e-014
endloop
endfacet
facet normal 0.0 0.0 -1.0
outer loop
vertex 10.3121253023694 5.49839228784727 -4.51194637207664e-014
vertex 10.3705603016964 9.17917399555322 -4.51194637207664e-014
vertex 10.4232033277209 5.79220387861667 0.0
endloop
endfacet
facet normal 0.0 0.0 -1.0
outer loop
vertex 10.4232033277209 5.79220387861667 0.0
vertex 10.3705603016964 9.17917399555322 -4.51194637207664e-014
vertex 10.4722557686043 8.88198447589145 0.0
endloop
endfacet
facet normal 0.0 0.0 -1.0
outer loop
vertex 10.4232033277209 5.79220387861667 0.0
vertex 10.4722557686043 8.88198447589145 0.0
vertex 10.5156135835344 6.09241034624666 -4.51194637207664e-014
endloop
endfacet
facet normal 0.0 0.0 -1.0
outer loop
vertex 10.5156135835344 6.09241034624666 -4.51194637207664e-014
vertex 10.4722557686043 8.88198447589145 0.0
vertex 10.5550898784003 8.57899588065932 -4.51194637207664e-014
endloop
endfacet
facet normal 0.0 0.0 -1.0
outer loop
vertex 10.5156135835344 6.09241034624666 -4.51194637207664e-014
vertex 10.5550898784003 8.57899588065932 -4.51194637207664e-014
vertex 10.5889913687488 6.3978269129608 0.0
endloop
endfacet
facet normal 0.0 0.0 -1.0
outer loop
vertex 10.5889913687488 6.3978269129608 0.0
vertex 10.5550898784003 8.57899588065932 -4.51194637207664e-014
vertex 10.6187357226961 8.27140396741989 0.0
endloop
endfacet
facet normal 0.0 0.0 -1.0
outer loop
vertex 10.5889913687488 6.3978269129608 0.0
vertex 10.6187357226961 8.27140396741989 0.0
vertex 10.6430470947688 6.70724823910183 0.0
endloop
endfacet
facet normal 0.0 0.0 -1.0
outer loop
vertex 10.6430470947688 6.70724823910183 0.0
vertex 10.6187357226961 8.27140396741989 0.0
vertex 10.6629421204214 7.96042266092933 0.0
endloop
endfacet
facet normal 0.0 0.0 -1.0
outer loop
vertex 10.6430470947688 6.70724823910183 0.0
vertex 10.6629421204214 7.96042266092933 0.0
vertex 10.6775674283395 7.01945318005663 -4.51194637207664e-014
endloop
endfacet
facet normal 0.0 0.0 -1.0
outer loop
vertex 10.6775674283395 7.01945318005663 -4.51194637207664e-014
vertex 10.6629421204214 7.96042266092933 0.0
vertex 10.6875346091203 7.64727926233052 -4.51194637207664e-014
endloop
endfacet
facet normal 0.0 0.0 -1.0
outer loop
vertex 10.6775674283395 7.01945318005663 -4.51194637207664e-014
vertex 10.6875346091203 7.64727926233052 -4.51194637207664e-014
vertex 10.6924161334751 7.33320960555612 -4.51194637207664e-014
endloop
endfacet
facet normal 0.985137922678303 0.171765169056705 0.0
outer loop
vertex 10.6187357226961 8.27140396741989 0.0
vertex 10.6629421204214 7.96042266092933 9.99999999999997
vertex 10.6629421204214 7.96042266092933 0.0
endloop
endfacet
facet normal 0.993979202223363 0.109568907758575 0.0
outer loop
vertex 10.6629421204214 7.96042266092933 9.99999999999997
vertex 10.6187357226961 8.27140396741989 0.0
vertex 10.6187357226961 8.27140396741989 9.99999999999998
endloop
endfacet
facet normal 0.0786249884160427 0.996904263807 0.0
outer loop
vertex 6.08617105138476 12.3970994411717 0.0
vertex 6.39837599233946 12.3625791076011 9.99999999999998
vertex 6.39837599233946 12.3625791076011 -4.51194637207664e-014
endloop
endfacet
facet normal 0.141065976607012 0.990000197092864 0.0
outer loop
vertex 6.39837599233946 12.3625791076011 9.99999999999998
vertex 6.08617105138476 12.3970994411717 0.0
vertex 6.08617105138476 12.3970994411717 9.99999999999998
endloop
endfacet
facet normal -0.96451349484602 0.264033555177966 0.0
outer loop
vertex 0.870478635074681 8.73274589802692 9.99999999999999
vertex 0.797100849860284 8.42732933131278 0.0
vertex 0.797100849860284 8.42732933131277 9.99999999999998
endloop
endfacet
facet normal -0.979189051888846 0.202950241835338 0.0
outer loop
vertex 0.797100849860284 8.42732933131278 0.0
vertex 0.870478635074681 8.73274589802692 9.99999999999999
vertex 0.870478635074681 8.73274589802692 -4.51194637207664e-014
endloop
endfacet
facet normal 0.495603207720651 0.868549054744176 0.0
outer loop
vertex 8.17106214790753 11.7553233958578 9.99999999999997
vertex 8.43885558122457 11.5911580656 0.0
vertex 8.17106214790753 11.7553233958578 0.0
endloop
endfacet
facet normal 0.549161894384095 0.835715988692613 0.0
outer loop
vertex 8.43885558122457 11.5911580656 0.0
vertex 8.17106214790753 11.7553233958578 9.99999999999997
vertex 8.43885558122457 11.5911580656 9.99999999999997
endloop
endfacet
facet normal 0.998897699963151 0.046940228038714 0.0
outer loop
vertex 10.6875346091203 7.64727926233052 -4.51194637207664e-014
vertex 10.6924161334751 7.33320960555612 9.99999999999998
vertex 10.6924161334751 7.33320960555612 -4.51194637207664e-014
endloop
endfacet
facet normal 0.999874004834124 -0.0158737033162131 0.0
outer loop
vertex 10.6924161334751 7.33320960555612 9.99999999999998
vertex 10.6875346091203 7.64727926233052 -4.51194637207664e-014
vertex 10.6875346091203 7.64727926233052 9.99999999999998
endloop
endfacet
facet normal 0.780534441131793 0.625112778790419 0.0
outer loop
vertex 9.59571831496353 10.5381420160887 -4.51194637207664e-014
vertex 9.78427306356972 10.2869236143652 9.99999999999998
vertex 9.78427306356972 10.2869236143652 -4.51194637207664e-014
endloop
endfacet
facet normal 0.818245390853035 0.574869098445693 0.0
outer loop
vertex 9.78427306356972 10.2869236143652 9.99999999999998
vertex 9.59571831496353 10.5381420160887 -4.51194637207664e-014
vertex 9.59571831496353 10.5381420160887 9.99999999999997
endloop
endfacet
facet normal -0.999874004834124 0.0158737033162134 0.0
outer loop
vertex 0.693676085133941 7.49194663871746 9.99999999999998
vertex 0.698557609488812 7.17787698194306 -4.51194637207664e-014
vertex 0.698557609488812 7.17787698194306 9.99999999999999
endloop
endfacet
facet normal -0.998897699963151 -0.0469402280387154 0.0
outer loop
vertex 0.698557609488812 7.17787698194306 -4.51194637207664e-014
vertex 0.693676085133941 7.49194663871746 9.99999999999998
vertex 0.693676085133941 7.49194663871746 -4.51194637207664e-014
endloop
endfacet
facet normal 0.883843484532465 0.467782743214742 0.0
outer loop
vertex 10.1122635319669 9.75149183821012 0.0
vertex 9.95668160849106 10.0243614841474 9.99999999999998
vertex 10.1122635319669 9.75149183821012 9.99999999999999
endloop
endfacet
facet normal 0.852727099837401 0.522356672402005 0.0
outer loop
vertex 9.95668160849106 10.0243614841474 9.99999999999998
vertex 10.1122635319669 9.75149183821012 0.0
vertex 9.95668160849106 10.0243614841474 0.0
endloop
endfacet
facet normal -0.495603207720652 -0.868549054744175 0.0
outer loop
vertex 3.21503007070156 3.06983284841582 9.99999999999997
vertex 2.94723663738452 3.23399817867356 0.0
vertex 3.21503007070156 3.06983284841582 -4.51194637207664e-014
endloop
endfacet
facet normal -0.549161894384093 -0.835715988692615 0.0
outer loop
vertex 2.94723663738452 3.23399817867356 0.0
vertex 3.21503007070156 3.06983284841582 9.99999999999997
vertex 2.94723663738452 3.23399817867356 9.99999999999998
endloop
endfacet
facet normal 0.998897699963151 0.046940228038714 0.0
outer loop
vertex 10.6875346091203 7.64727926233052 -4.51194637207664e-014
vertex 10.6629421204214 7.96042266092933 9.99999999999997
vertex 10.6875346091203 7.64727926233052 9.99999999999998
endloop
endfacet
facet normal 0.993979202223363 0.109568907758575 0.0
outer loop
vertex 10.6629421204214 7.96042266092933 9.99999999999997
vertex 10.6875346091203 7.64727926233052 -4.51194637207664e-014
vertex 10.6629421204214 7.96042266092933 0.0
endloop
endfacet
facet normal 0.382837166857947 0.923815838612968 0.0
outer loop
vertex 7.60723194359403 12.0316573152016 9.99999999999997
vertex 7.89348911738382 11.9023498945317 0.0
vertex 7.60723194359403 12.0316573152016 0.0
endloop
endfacet
facet normal 0.440088601615832 0.897954354479014 0.0
outer loop
vertex 7.89348911738382 11.9023498945317 0.0
vertex 7.60723194359403 12.0316573152016 9.99999999999997
vertex 7.89348911738382 11.9023498945317 9.99999999999998
endloop
endfacet
facet normal 0.467782743214671 -0.883843484532504 0.0
outer loop
vertex 8.03195982537796 2.99336069947434 9.99999999999997
vertex 7.74985955555127 2.85521940821728 0.0
vertex 8.03195982537796 2.99336069947434 0.0
endloop
endfacet
facet normal 0.411362689249302 -0.911471742783934 0.0
outer loop
vertex 7.74985955555127 2.85521940821728 0.0
vertex 8.03195982537796 2.99336069947434 9.99999999999997
vertex 7.74985955555127 2.85521940821728 9.99999999999998
endloop
endfacet
facet normal -0.411362689249413 0.911471742783884 0.0
outer loop
vertex 3.63623266305782 11.9699368360563 9.99999999999997
vertex 3.92645023588811 12.0900923145287 -4.51194637207664e-014
vertex 3.63623266305782 11.9699368360563 -4.51194637207664e-014
endloop
endfacet
facet normal -0.353319174683299 0.935502838478383 0.0
outer loop
vertex 3.92645023588811 12.0900923145287 -4.51194637207664e-014
vertex 3.63623266305782 11.9699368360563 9.99999999999997
vertex 3.92645023588811 12.0900923145287 9.99999999999997
endloop
endfacet
facet normal -0.293881270750924 0.955841931859982 0.0
outer loop
vertex 4.22363975554985 12.1917877814366 9.99999999999997
vertex 4.52662835078203 12.2746218912325 0.0
vertex 4.22363975554985 12.1917877814366 0.0
endloop
endfacet
facet normal -0.233283551704493 0.972408753819163 0.0
outer loop
vertex 4.52662835078203 12.2746218912325 0.0
vertex 4.22363975554985 12.1917877814366 9.99999999999997
vertex 4.52662835078203 12.2746218912325 9.99999999999998
endloop
endfacet
facet normal 0.202950241835177 0.97918905188888 0.0
outer loop
vertex 6.70779731848049 12.3085233815811 9.99999999999999
vertex 7.01321388519469 12.2351455963667 0.0
vertex 6.70779731848049 12.3085233815811 0.0
endloop
endfacet
facet normal 0.264033555177986 0.964513494846015 0.0
outer loop
vertex 7.01321388519469 12.2351455963667 0.0
vertex 6.70779731848049 12.3085233815811 9.99999999999999
vertex 7.01321388519469 12.2351455963667 9.99999999999998
endloop
endfacet
facet normal 0.522356672402147 -0.852727099837314 0.0
outer loop
vertex 8.30482947131523 3.14894262295025 9.99999999999997
vertex 8.03195982537796 2.99336069947434 0.0
vertex 8.30482947131523 3.14894262295025 -4.51194637207664e-014
endloop
endfacet
facet normal 0.467782743214672 -0.883843484532503 0.0
outer loop
vertex 8.03195982537796 2.99336069947434 0.0
vertex 8.30482947131523 3.14894262295025 9.99999999999997
vertex 8.03195982537796 2.99336069947434 9.99999999999997
endloop
endfacet
facet normal 0.264033555177985 0.964513494846015 0.0
outer loop
vertex 7.01321388519469 12.2351455963667 9.99999999999998
vertex 7.31342035282472 12.1427353405531 0.0
vertex 7.01321388519469 12.2351455963667 0.0
endloop
endfacet
facet normal 0.324074848704057 0.946031443683265 0.0
outer loop
vertex 7.31342035282472 12.1427353405531 0.0
vertex 7.01321388519469 12.2351455963667 9.99999999999998
vertex 7.31342035282472 12.1427353405531 9.99999999999998
endloop
endfacet
facet normal -0.993979202223363 -0.109568907758574 -1.26280056420216e-029
outer loop
vertex 0.723150098187695 6.86473358334425 9.99999999999997
vertex 0.767356495913015 6.55375227685369 0.0
vertex 0.767356495913015 6.55375227685369 9.99999999999998
endloop
endfacet
facet normal -0.985137922678303 -0.171765169056701 -1.26280056420223e-029
outer loop
vertex 0.767356495913015 6.55375227685369 0.0
vertex 0.723150098187695 6.86473358334425 9.99999999999997
vertex 0.723150098187695 6.86473358334425 -4.51194637207664e-014
endloop
endfacet
facet normal 0.440088601615832 0.897954354479014 0.0
outer loop
vertex 7.89348911738382 11.9023498945317 9.99999999999998
vertex 8.17106214790753 11.7553233958578 0.0
vertex 7.89348911738382 11.9023498945317 0.0
endloop
endfacet
facet normal 0.495603207720652 0.868549054744175 0.0
outer loop
vertex 8.17106214790753 11.7553233958578 0.0
vertex 7.89348911738382 11.9023498945317 9.99999999999998
vertex 8.17106214790753 11.7553233958578 9.99999999999997
endloop
endfacet
facet normal -0.0469402280387467 0.99889769996315 1.01024045136173e-028
outer loop
vertex 5.45834496911083 12.4070666219525 9.99999999999999
vertex 5.77241462588515 12.4119481463073 -4.51194637207664e-014
vertex 5.45834496911083 12.4070666219525 -4.51194637207664e-014
endloop
endfacet
facet normal 0.0158737033161244 0.999874004834125 1.01024045136178e-028
outer loop
vertex 5.77241462588515 12.4119481463073 -4.51194637207664e-014
vertex 5.45834496911083 12.4070666219525 9.99999999999999
vertex 5.77241462588515 12.4119481463073 9.99999999999997
endloop
endfacet
facet normal 0.600553289938394 0.799584733436158 0.0
outer loop
vertex 8.69581255899708 11.410501789317 9.99999999999999
vertex 8.94091898942631 11.2140675347972 -4.51194637207664e-014
vertex 8.69581255899708 11.410501789317 -4.51194637207664e-014
endloop
endfacet
facet normal 0.649574576024243 0.760297882532186 0.0
outer loop
vertex 8.94091898942631 11.2140675347972 -4.51194637207664e-014
vertex 8.69581255899708 11.410501789317 9.99999999999999
vertex 8.94091898942631 11.2140675347972 9.99999999999997
endloop
endfacet
facet normal -0.972408753819128 -0.233283551704638 0.0
outer loop
vertex 0.831002340208802 6.24616036361425 9.99999999999998
vertex 0.913836450004794 5.94317176838213 -4.51194637207664e-014
vertex 0.913836450004794 5.94317176838212 9.99999999999997
endloop
endfacet
facet normal -0.955841931859955 -0.29388127075101 0.0
outer loop
vertex 0.913836450004794 5.94317176838213 -4.51194637207664e-014
vertex 0.831002340208802 6.24616036361425 9.99999999999998
vertex 0.831002340208802 6.24616036361425 0.0
endloop
endfacet
facet normal -0.467782743214648 0.883843484532515 0.0
outer loop
vertex 3.35413239323131 11.8317955447992 0.0
vertex 3.63623266305782 11.9699368360563 9.99999999999997
vertex 3.63623266305782 11.9699368360563 -4.51194637207664e-014
endloop
endfacet
facet normal -0.411362689249413 0.911471742783884 0.0
outer loop
vertex 3.63623266305782 11.9699368360563 9.99999999999997
vertex 3.35413239323131 11.8317955447992 0.0
vertex 3.35413239323131 11.8317955447992 9.99999999999997
endloop
endfacet
facet normal 0.935502838478441 0.353319174683147 0.0
outer loop
vertex 10.3705603016964 9.17917399555322 -4.51194637207664e-014
vertex 10.2504048232241 9.4693915683835 9.99999999999998
vertex 10.3705603016964 9.17917399555322 9.99999999999997
endloop
endfacet
facet normal 0.911471742783901 0.411362689249375 0.0
outer loop
vertex 10.2504048232241 9.4693915683835 9.99999999999998
vertex 10.3705603016964 9.17917399555322 -4.51194637207664e-014
vertex 10.2504048232241 9.4693915683835 0.0
endloop
endfacet
facet normal -0.868549054744157 0.495603207720684 5.05120225680865e-029
outer loop
vertex 1.35030083558357 9.89059416073975 9.99999999999999
vertex 1.20327433690962 9.61302113021608 -4.51194637207664e-014
vertex 1.20327433690962 9.61302113021608 9.99999999999999
endloop
endfacet
facet normal -0.897954354478986 0.440088601615889 0.0
outer loop
vertex 1.20327433690962 9.61302113021608 -4.51194637207664e-014
vertex 1.35030083558357 9.89059416073975 9.99999999999999
vertex 1.35030083558357 9.89059416073975 -4.51194637207664e-014
endloop
endfacet
facet normal 0.972408753819128 0.233283551704637 0.0
outer loop
vertex 10.5550898784003 8.57899588065932 -4.51194637207664e-014
vertex 10.4722557686043 8.88198447589145 9.99999999999998
vertex 10.5550898784003 8.57899588065932 9.99999999999997
endloop
endfacet
facet normal 0.955841931859956 0.293881270751009 0.0
outer loop
vertex 10.4722557686043 8.88198447589145 9.99999999999998
vertex 10.5550898784003 8.57899588065932 -4.51194637207664e-014
vertex 10.4722557686043 8.88198447589145 0.0
endloop
endfacet
facet normal 0.141065976607012 0.990000197092864 0.0
outer loop
vertex 6.39837599233946 12.3625791076011 9.99999999999998
vertex 6.70779731848049 12.3085233815811 0.0
vertex 6.39837599233946 12.3625791076011 -4.51194637207664e-014
endloop
endfacet
facet normal 0.202950241835176 0.97918905188888 0.0
outer loop
vertex 6.70779731848049 12.3085233815811 0.0
vertex 6.39837599233946 12.3625791076011 9.99999999999998
vertex 6.70779731848049 12.3085233815811 9.99999999999999
endloop
endfacet
facet normal -0.923815838612986 0.382837166857904 0.0
outer loop
vertex 1.07396691623967 9.32676395642631 9.99999999999998
vertex 0.962888890888239 9.03295236565691 0.0
vertex 0.962888890888239 9.03295236565691 9.99999999999999
endloop
endfacet
facet normal -0.946031443683328 0.324074848703873 0.0
outer loop
vertex 0.962888890888239 9.03295236565691 0.0
vertex 1.07396691623967 9.32676395642631 9.99999999999998
vertex 1.07396691623967 9.32676395642631 -4.51194637207664e-014
endloop
endfacet
facet normal -0.353319174683298 0.935502838478384 0.0
outer loop
vertex 3.92645023588811 12.0900923145287 9.99999999999997
vertex 4.22363975554985 12.1917877814366 0.0
vertex 3.92645023588811 12.0900923145287 -4.51194637207664e-014
endloop
endfacet
facet normal -0.293881270750926 0.955841931859981 0.0
outer loop
vertex 4.22363975554985 12.1917877814366 0.0
vertex 3.92645023588811 12.0900923145287 9.99999999999997
vertex 4.22363975554985 12.1917877814366 9.99999999999997
endloop
endfacet
facet normal -0.233283551704493 0.972408753819163 0.0
outer loop
vertex 4.52662835078203 12.2746218912325 9.99999999999998
vertex 4.83422026402145 12.3382677355283 0.0
vertex 4.52662835078203 12.2746218912325 0.0
endloop
endfacet
facet normal -0.171765169056632 0.985137922678316 0.0
outer loop
vertex 4.83422026402145 12.3382677355283 0.0
vertex 4.52662835078203 12.2746218912325 9.99999999999998
vertex 4.83422026402145 12.3382677355283 9.99999999999998
endloop
endfacet
facet normal -0.672889424584056 0.739743078563725 5.05120225680866e-029
outer loop
vertex 2.32859898638429 11.1112935149553 9.99999999999997
vertex 2.5674822153526 11.3152503277958 0.0
vertex 2.32859898638429 11.1112935149553 0.0
endloop
endfacet
facet normal -0.625112778790482 0.780534441131743 5.0512022568087e-029
outer loop
vertex 2.5674822153526 11.3152503277958 0.0
vertex 2.32859898638429 11.1112935149553 9.99999999999997
vertex 2.5674822153526 11.3152503277958 9.99999999999997
endloop
endfacet
facet normal -0.718010483232833 0.696032288021004 0.0
outer loop
vertex 2.1029936931403 10.8927395622417 9.99999999999997
vertex 1.89155669664413 10.6604510022585 0.0
vertex 1.89155669664413 10.6604510022585 9.99999999999998
endloop
endfacet
facet normal -0.760297882532059 0.649574576024391 0.0
outer loop
vertex 1.89155669664413 10.6604510022585 0.0
vertex 2.1029936931403 10.8927395622417 9.99999999999997
vertex 2.1029936931403 10.8927395622417 -4.51194637207664e-014
endloop
endfacet
facet normal 0.696032288021025 0.718010483232812 0.0
outer loop
vertex 9.17320754940948 11.002630538301 -4.51194637207664e-014
vertex 9.39176150212309 10.7770252450571 9.99999999999997
vertex 9.39176150212309 10.7770252450571 -4.51194637207664e-014
endloop
endfacet
facet normal 0.739743078563785 0.672889424583991 0.0
outer loop
vertex 9.39176150212309 10.7770252450571 9.99999999999997
vertex 9.17320754940948 11.002630538301 -4.51194637207664e-014
vertex 9.17320754940948 11.002630538301 9.99999999999998
endloop
endfacet
facet normal -0.935502838478441 -0.353319174683146 0.0
outer loop
vertex 1.01553191691271 5.64598224872035 9.99999999999997
vertex 1.13568739538501 5.35576467589008 0.0
vertex 1.13568739538501 5.35576467589008 9.99999999999998
endloop
endfacet
facet normal -0.911471742783901 -0.411362689249375 0.0
outer loop
vertex 1.13568739538501 5.35576467589008 0.0
vertex 1.01553191691271 5.64598224872035 9.99999999999997
vertex 1.01553191691271 5.64598224872036 0.0
endloop
endfacet
facet normal -0.382837166857943 -0.923815838612969 -1.01024045136174e-028
outer loop
vertex 3.77886027501506 2.79349892907193 9.99999999999997
vertex 3.49260310122527 2.92280634974186 0.0
vertex 3.77886027501506 2.79349892907193 0.0
endloop
endfacet
facet normal -0.440088601615833 -0.897954354479013 0.0
outer loop
vertex 3.49260310122527 2.92280634974186 0.0
vertex 3.77886027501506 2.79349892907193 9.99999999999997
vertex 3.49260310122527 2.92280634974186 9.99999999999998
endloop
endfacet
facet normal 0.649574576024243 0.760297882532186 0.0
outer loop
vertex 8.94091898942631 11.2140675347972 9.99999999999997
vertex 9.17320754940948 11.002630538301 -4.51194637207664e-014
vertex 8.94091898942631 11.2140675347972 -4.51194637207664e-014
endloop
endfacet
facet normal 0.696032288021025 0.718010483232812 0.0
outer loop
vertex 9.17320754940948 11.002630538301 -4.51194637207664e-014
vertex 8.94091898942631 11.2140675347972 9.99999999999997
vertex 9.17320754940948 11.002630538301 9.99999999999998
endloop
endfacet
facet normal -0.171765169056632 0.985137922678316 0.0
outer loop
vertex 4.83422026402145 12.3382677355283 9.99999999999998
vertex 5.145201570512 12.3824741332536 0.0
vertex 4.83422026402145 12.3382677355283 0.0
endloop
endfacet
facet normal -0.109568907758507 0.99397920222337 0.0
outer loop
vertex 5.145201570512 12.3824741332536 0.0
vertex 4.83422026402145 12.3382677355283 9.99999999999998
vertex 5.145201570512 12.3824741332536 9.99999999999998
endloop
endfacet
facet normal 0.0158737033161255 0.999874004834125 1.01024045136175e-028
outer loop
vertex 5.77241462588515 12.4119481463073 9.99999999999997
vertex 6.08617105138476 12.3970994411717 0.0
vertex 5.77241462588515 12.4119481463073 -4.51194637207664e-014
endloop
endfacet
facet normal 0.0786249884160427 0.996904263807 0.0
outer loop
vertex 6.08617105138476 12.3970994411717 0.0
vertex 5.77241462588515 12.4119481463073 9.99999999999997
vertex 6.08617105138476 12.3970994411717 9.99999999999998
endloop
endfacet
facet normal -0.799584733436095 0.600553289938477 0.0
outer loop
vertex 1.69512244212424 10.4153445718294 9.99999999999997
vertex 1.51446616584139 10.1583875940569 0.0
vertex 1.51446616584139 10.1583875940569 9.99999999999998
endloop
endfacet
facet normal -0.835715988692709 0.54916189438395 5.05120225680864e-029
outer loop
vertex 1.51446616584139 10.1583875940569 0.0
vertex 1.69512244212424 10.4153445718294 9.99999999999997
vertex 1.69512244212424 10.4153445718294 -4.51194637207664e-014
endloop
endfacet
facet normal 0.574869098445704 -0.818245390853028 0.0
outer loop
vertex 8.56739160153303 3.32135116787167 0.0
vertex 8.30482947131523 3.14894262295025 9.99999999999997
vertex 8.30482947131523 3.14894262295025 -4.51194637207664e-014
endloop
endfacet
facet normal 0.522356672402147 -0.852727099837314 0.0
outer loop
vertex 8.30482947131523 3.14894262295025 9.99999999999997
vertex 8.56739160153303 3.32135116787167 0.0
vertex 8.56739160153303 3.32135116787167 9.99999999999998
endloop
endfacet
facet normal -0.574869098445707 0.818245390853026 0.0
outer loop
vertex 2.81870061707606 11.5038050764019 9.99999999999998
vertex 3.08126274729386 11.6762136213233 0.0
vertex 2.81870061707606 11.5038050764019 0.0
endloop
endfacet
facet normal -0.522356672402032 0.852727099837384 0.0
outer loop
vertex 3.08126274729386 11.6762136213233 0.0
vertex 2.81870061707606 11.5038050764019 9.99999999999998
vertex 3.08126274729386 11.6762136213233 9.99999999999998
endloop
endfacet
facet normal -0.109568907758507 0.99397920222337 0.0
outer loop
vertex 5.145201570512 12.3824741332536 0.0
vertex 5.45834496911083 12.4070666219525 9.99999999999999
vertex 5.45834496911083 12.4070666219525 -4.51194637207664e-014
endloop
endfacet
facet normal -0.0469402280387467 0.99889769996315 1.01024045136173e-028
outer loop
vertex 5.45834496911083 12.4070666219525 9.99999999999999
vertex 5.145201570512 12.3824741332536 0.0
vertex 5.145201570512 12.3824741332536 9.99999999999998
endloop
endfacet
facet normal 0.549161894384095 0.835715988692613 0.0
outer loop
vertex 8.43885558122457 11.5911580656 0.0
vertex 8.69581255899708 11.410501789317 9.99999999999999
vertex 8.69581255899708 11.410501789317 -4.51194637207664e-014
endloop
endfacet
facet normal 0.600553289938394 0.799584733436158 0.0
outer loop
vertex 8.69581255899708 11.410501789317 9.99999999999999
vertex 8.43885558122457 11.5911580656 0.0
vertex 8.43885558122457 11.5911580656 9.99999999999997
endloop
endfacet
facet normal 0.780534441131793 0.625112778790419 0.0
outer loop
vertex 9.59571831496353 10.5381420160887 -4.51194637207664e-014
vertex 9.39176150212309 10.7770252450571 9.99999999999997
vertex 9.59571831496353 10.5381420160887 9.99999999999997
endloop
endfacet
facet normal 0.739743078563785 0.672889424583991 0.0
outer loop
vertex 9.39176150212309 10.7770252450571 9.99999999999997
vertex 9.59571831496353 10.5381420160887 -4.51194637207664e-014
vertex 9.39176150212309 10.7770252450571 -4.51194637207664e-014
endloop
endfacet
facet normal 0.324074848704057 0.946031443683265 0.0
outer loop
vertex 7.31342035282472 12.1427353405531 9.99999999999998
vertex 7.60723194359403 12.0316573152016 0.0
vertex 7.31342035282472 12.1427353405531 0.0
endloop
endfacet
facet normal 0.382837166857947 0.923815838612968 0.0
outer loop
vertex 7.60723194359403 12.0316573152016 0.0
vertex 7.31342035282472 12.1427353405531 9.99999999999998
vertex 7.60723194359403 12.0316573152016 9.99999999999997
endloop
endfacet
facet normal 0.818245390853034 0.574869098445695 0.0
outer loop
vertex 9.78427306356972 10.2869236143652 -4.51194637207664e-014
vertex 9.95668160849106 10.0243614841474 9.99999999999998
vertex 9.95668160849106 10.0243614841474 0.0
endloop
endfacet
facet normal 0.852727099837401 0.522356672402005 0.0
outer loop
vertex 9.95668160849106 10.0243614841474 9.99999999999998
vertex 9.78427306356972 10.2869236143652 -4.51194637207664e-014
vertex 9.78427306356972 10.2869236143652 9.99999999999998
endloop
endfacet
facet normal -0.141065976607012 -0.990000197092864 0.0
outer loop
vertex 4.98771622626963 2.46257713667252 9.99999999999999
vertex 4.6782949001286 2.51663286269248 0.0
vertex 4.98771622626963 2.46257713667252 -4.51194637207664e-014
endloop
endfacet
facet normal -0.202950241835177 -0.97918905188888 0.0
outer loop
vertex 4.6782949001286 2.51663286269248 0.0
vertex 4.98771622626963 2.46257713667252 9.99999999999999
vertex 4.6782949001286 2.51663286269248 9.99999999999998
endloop
endfacet
facet normal 0.0 0.0 1.0
outer loop
vertex 0.698557609488812 7.17787698194306 9.99999999999999
vertex 0.708524790269604 7.80570306421695 9.99999999999998
vertex 0.693676085133941 7.49194663871746 9.99999999999998
endloop
endfacet
facet normal 0.0 0.0 1.0
outer loop
vertex 0.708524790269604 7.80570306421695 9.99999999999998
vertex 0.698557609488812 7.17787698194306 9.99999999999999
vertex 0.723150098187695 6.86473358334425 9.99999999999997
endloop
endfacet
facet normal 0.0 0.0 1.0
outer loop
vertex 0.708524790269604 7.80570306421695 9.99999999999998
vertex 0.723150098187695 6.86473358334425 9.99999999999997
vertex 0.743045123840274 8.11790800517174 9.99999999999997
endloop
endfacet
facet normal 0.0 0.0 1.0
outer loop
vertex 0.743045123840274 8.11790800517174 9.99999999999997
vertex 0.723150098187695 6.86473358334425 9.99999999999997
vertex 0.767356495913015 6.55375227685369 9.99999999999998
endloop
endfacet
facet normal 0.0 0.0 1.0
outer loop
vertex 0.743045123840274 8.11790800517174 9.99999999999997
vertex 0.767356495913015 6.55375227685369 9.99999999999998
vertex 0.797100849860284 8.42732933131277 9.99999999999998
endloop
endfacet
facet normal 0.0 0.0 1.0
outer loop
vertex 0.797100849860284 8.42732933131277 9.99999999999998
vertex 0.767356495913015 6.55375227685369 9.99999999999998
vertex 0.831002340208802 6.24616036361425 9.99999999999998
endloop
endfacet
facet normal 0.0 0.0 1.0
outer loop
vertex 0.797100849860284 8.42732933131277 9.99999999999998
vertex 0.831002340208802 6.24616036361425 9.99999999999998
vertex 0.870478635074681 8.73274589802692 9.99999999999999
endloop
endfacet
facet normal 0.0 0.0 1.0
outer loop
vertex 0.870478635074681 8.73274589802692 9.99999999999999
vertex 0.831002340208802 6.24616036361425 9.99999999999998
vertex 0.913836450004794 5.94317176838212 9.99999999999997
endloop
endfacet
facet normal 0.0 0.0 1.0
outer loop
vertex 0.870478635074681 8.73274589802692 9.99999999999999
vertex 0.913836450004794 5.94317176838212 9.99999999999997
vertex 0.962888890888239 9.03295236565691 9.99999999999999
endloop
endfacet
facet normal 0.0 0.0 1.0
outer loop
vertex 0.962888890888239 9.03295236565691 9.99999999999999
vertex 0.913836450004794 5.94317176838212 9.99999999999997
vertex 1.01553191691271 5.64598224872035 9.99999999999997
endloop
endfacet
facet normal 0.0 0.0 1.0
outer loop
vertex 0.962888890888239 9.03295236565691 9.99999999999999
vertex 1.01553191691271 5.64598224872035 9.99999999999997
vertex 1.07396691623967 9.32676395642631 9.99999999999998
endloop
endfacet
facet normal 0.0 0.0 1.0
outer loop
vertex 1.07396691623967 9.32676395642631 9.99999999999998
vertex 1.01553191691271 5.64598224872035 9.99999999999997
vertex 1.13568739538501 5.35576467589008 9.99999999999998
endloop
endfacet
facet normal 0.0 0.0 1.0
outer loop
vertex 1.07396691623967 9.32676395642631 9.99999999999998
vertex 1.13568739538501 5.35576467589008 9.99999999999998
vertex 1.20327433690962 9.61302113021608 9.99999999999999
endloop
endfacet
facet normal 0.0 0.0 1.0
outer loop
vertex 1.20327433690962 9.61302113021608 9.99999999999999
vertex 1.13568739538501 5.35576467589008 9.99999999999998
vertex 1.27382868664215 5.07366440606346 9.99999999999998
endloop
endfacet
facet normal 0.0 0.0 1.0
outer loop
vertex 1.20327433690962 9.61302113021608 9.99999999999999
vertex 1.27382868664215 5.07366440606346 9.99999999999998
vertex 1.35030083558357 9.89059416073975 9.99999999999999
endloop
endfacet
facet normal 0.0 0.0 1.0
outer loop
vertex 1.35030083558357 9.89059416073975 9.99999999999999
vertex 1.27382868664215 5.07366440606346 9.99999999999998
vertex 1.42941061011803 4.80079476012614 9.99999999999999
endloop
endfacet
facet normal 0.0 0.0 1.0
outer loop
vertex 1.35030083558357 9.89059416073975 9.99999999999999
vertex 1.42941061011803 4.80079476012614 9.99999999999999
vertex 1.51446616584139 10.1583875940569 9.99999999999998
endloop
endfacet
facet normal 0.0 0.0 1.0
outer loop
vertex 1.51446616584139 10.1583875940569 9.99999999999998
vertex 1.42941061011803 4.80079476012614 9.99999999999999
vertex 1.60181915503937 4.53823262990837 9.99999999999999
endloop
endfacet
facet normal 0.0 0.0 1.0
outer loop
vertex 1.51446616584139 10.1583875940569 9.99999999999998
vertex 1.60181915503937 4.53823262990837 9.99999999999999
vertex 1.69512244212424 10.4153445718294 9.99999999999997
endloop
endfacet
facet normal 0.0 0.0 1.0
outer loop
vertex 1.69512244212424 10.4153445718294 9.99999999999997
vertex 1.60181915503937 4.53823262990837 9.99999999999999
vertex 1.79037390364556 4.28701422818487 9.99999999999997
endloop
endfacet
facet normal 0.0 0.0 1.0
outer loop
vertex 1.69512244212424 10.4153445718294 9.99999999999997
vertex 1.79037390364556 4.28701422818487 9.99999999999997
vertex 1.89155669664413 10.6604510022585 9.99999999999998
endloop
endfacet
facet normal 0.0 0.0 1.0
outer loop
vertex 1.89155669664413 10.6604510022585 9.99999999999998
vertex 1.79037390364556 4.28701422818487 9.99999999999997
vertex 1.994330716486 4.04813099921649 9.99999999999997
endloop
endfacet
facet normal 0.0 0.0 1.0
outer loop
vertex 1.89155669664413 10.6604510022585 9.99999999999998
vertex 1.994330716486 4.04813099921649 9.99999999999997
vertex 2.1029936931403 10.8927395622417 9.99999999999997
endloop
endfacet
facet normal 0.0 0.0 1.0
outer loop
vertex 2.1029936931403 10.8927395622417 9.99999999999997
vertex 1.994330716486 4.04813099921649 9.99999999999997
vertex 2.2128846691996 3.82252570597258 9.99999999999999
endloop
endfacet
facet normal 0.0 0.0 1.0
outer loop
vertex 2.1029936931403 10.8927395622417 9.99999999999997
vertex 2.2128846691996 3.82252570597258 9.99999999999999
vertex 2.32859898638429 11.1112935149553 9.99999999999997
endloop
endfacet
facet normal 0.0 0.0 1.0
outer loop
vertex 2.32859898638429 11.1112935149553 9.99999999999997
vertex 2.2128846691996 3.82252570597258 9.99999999999999
vertex 2.44517322918296 3.61108870947634 9.99999999999998
endloop
endfacet
facet normal 0.0 0.0 1.0
outer loop
vertex 2.32859898638429 11.1112935149553 9.99999999999997
vertex 2.44517322918296 3.61108870947634 9.99999999999998
vertex 2.5674822153526 11.3152503277958 9.99999999999997
endloop
endfacet
facet normal 0.0 0.0 1.0
outer loop
vertex 2.5674822153526 11.3152503277958 9.99999999999997
vertex 2.44517322918296 3.61108870947634 9.99999999999998
vertex 2.69027965961201 3.41465445495657 9.99999999999998
endloop
endfacet
facet normal 0.0 0.0 1.0
outer loop
vertex 2.5674822153526 11.3152503277958 9.99999999999997
vertex 2.69027965961201 3.41465445495657 9.99999999999998
vertex 2.81870061707606 11.5038050764019 9.99999999999998
endloop
endfacet
facet normal 0.0 0.0 1.0
outer loop
vertex 2.81870061707606 11.5038050764019 9.99999999999998
vertex 2.69027965961201 3.41465445495657 9.99999999999998
vertex 2.94723663738452 3.23399817867356 9.99999999999998
endloop
endfacet
facet normal 0.0 0.0 1.0
outer loop
vertex 2.81870061707606 11.5038050764019 9.99999999999998
vertex 2.94723663738452 3.23399817867356 9.99999999999998
vertex 3.08126274729386 11.6762136213233 9.99999999999998
endloop
endfacet
facet normal 0.0 0.0 1.0
outer loop
vertex 3.08126274729386 11.6762136213233 9.99999999999998
vertex 2.94723663738452 3.23399817867356 9.99999999999998
vertex 3.21503007070156 3.06983284841582 9.99999999999997
endloop
endfacet
facet normal 0.0 0.0 1.0
outer loop
vertex 3.08126274729386 11.6762136213233 9.99999999999998
vertex 3.21503007070156 3.06983284841582 9.99999999999997
vertex 3.35413239323131 11.8317955447992 9.99999999999997
endloop
endfacet
facet normal 0.0 0.0 1.0
outer loop
vertex 3.35413239323131 11.8317955447992 9.99999999999997
vertex 3.21503007070156 3.06983284841582 9.99999999999997
vertex 3.49260310122527 2.92280634974186 9.99999999999998
endloop
endfacet
facet normal 0.0 0.0 1.0
outer loop
vertex 3.35413239323131 11.8317955447992 9.99999999999997
vertex 3.49260310122527 2.92280634974186 9.99999999999998
vertex 3.63623266305782 11.9699368360563 9.99999999999997
endloop
endfacet
facet normal 0.0 0.0 1.0
outer loop
vertex 3.63623266305782 11.9699368360563 9.99999999999997
vertex 3.49260310122527 2.92280634974186 9.99999999999998
vertex 3.77886027501506 2.79349892907193 9.99999999999997
endloop
endfacet
facet normal 0.0 0.0 1.0
outer loop
vertex 3.63623266305782 11.9699368360563 9.99999999999997
vertex 3.77886027501506 2.79349892907193 9.99999999999997
vertex 3.92645023588811 12.0900923145287 9.99999999999997
endloop
endfacet
facet normal 0.0 0.0 1.0
outer loop
vertex 3.92645023588811 12.0900923145287 9.99999999999997
vertex 3.77886027501506 2.79349892907193 9.99999999999997
vertex 4.07267186578436 2.68242090372048 9.99999999999998
endloop
endfacet
facet normal 0.0 0.0 1.0
outer loop
vertex 3.92645023588811 12.0900923145287 9.99999999999997
vertex 4.07267186578436 2.68242090372048 9.99999999999998
vertex 4.22363975554985 12.1917877814366 9.99999999999997
endloop
endfacet
facet normal 0.0 0.0 1.0
outer loop
vertex 4.22363975554985 12.1917877814366 9.99999999999997
vertex 4.07267186578436 2.68242090372048 9.99999999999998
vertex 4.37287833341439 2.59001064790684 9.99999999999997
endloop
endfacet
facet normal 0.0 0.0 1.0
outer loop
vertex 4.22363975554985 12.1917877814366 9.99999999999997
vertex 4.37287833341439 2.59001064790684 9.99999999999997
vertex 4.52662835078203 12.2746218912325 9.99999999999998
endloop
endfacet
facet normal 0.0 0.0 1.0
outer loop
vertex 4.52662835078203 12.2746218912325 9.99999999999998
vertex 4.37287833341439 2.59001064790684 9.99999999999997
vertex 4.6782949001286 2.51663286269248 9.99999999999998
endloop
endfacet
facet normal 0.0 0.0 1.0
outer loop
vertex 4.52662835078203 12.2746218912325 9.99999999999998
vertex 4.6782949001286 2.51663286269248 9.99999999999998
vertex 4.83422026402145 12.3382677355283 9.99999999999998
endloop
endfacet
facet normal 0.0 0.0 1.0
outer loop
vertex 4.83422026402145 12.3382677355283 9.99999999999998
vertex 4.6782949001286 2.51663286269248 9.99999999999998
vertex 4.98771622626963 2.46257713667252 9.99999999999999
endloop
endfacet
facet normal 0.0 0.0 1.0
outer loop
vertex 4.83422026402145 12.3382677355283 9.99999999999998
vertex 4.98771622626963 2.46257713667252 9.99999999999999
vertex 5.145201570512 12.3824741332536 9.99999999999998
endloop
endfacet
facet normal 0.0 0.0 1.0
outer loop
vertex 5.145201570512 12.3824741332536 9.99999999999998
vertex 4.98771622626963 2.46257713667252 9.99999999999999
vertex 5.29992116722433 2.42805680310185 9.99999999999997
endloop
endfacet
facet normal 0.0 0.0 1.0
outer loop
vertex 5.145201570512 12.3824741332536 9.99999999999998
vertex 5.29992116722433 2.42805680310185 9.99999999999997
vertex 5.45834496911083 12.4070666219525 9.99999999999999
endloop
endfacet
facet normal 0.0 0.0 1.0
outer loop
vertex 5.45834496911083 12.4070666219525 9.99999999999999
vertex 5.29992116722433 2.42805680310185 9.99999999999997
vertex 5.61367759272394 2.41320809796624 9.99999999999998
endloop
endfacet
facet normal 0.0 0.0 1.0
outer loop
vertex 5.45834496911083 12.4070666219525 9.99999999999999
vertex 5.61367759272394 2.41320809796624 9.99999999999998
vertex 5.77241462588515 12.4119481463073 9.99999999999997
endloop
endfacet
facet normal 0.0 0.0 1.0
outer loop
vertex 5.77241462588515 12.4119481463073 9.99999999999997
vertex 5.61367759272394 2.41320809796624 9.99999999999998
vertex 5.92774724949826 2.41808962232111 9.99999999999998
endloop
endfacet
facet normal 0.0 0.0 1.0
outer loop
vertex 5.77241462588515 12.4119481463073 9.99999999999997
vertex 5.92774724949826 2.41808962232111 9.99999999999998
vertex 6.08617105138476 12.3970994411717 9.99999999999998
endloop
endfacet
facet normal 0.0 0.0 1.0
outer loop
vertex 6.08617105138476 12.3970994411717 9.99999999999998
vertex 5.92774724949826 2.41808962232111 9.99999999999998
vertex 6.24089064809709 2.44268211102001 9.99999999999998
endloop
endfacet
facet normal 0.0 0.0 1.0
outer loop
vertex 6.08617105138476 12.3970994411717 9.99999999999998
vertex 6.24089064809709 2.44268211102001 9.99999999999998
vertex 6.39837599233946 12.3625791076011 9.99999999999998
endloop
endfacet
facet normal 0.0 0.0 1.0
outer loop
vertex 6.39837599233946 12.3625791076011 9.99999999999998
vertex 6.24089064809709 2.44268211102001 9.99999999999998
vertex 6.55187195458764 2.48688850874527 9.99999999999997
endloop
endfacet
facet normal 0.0 0.0 1.0
outer loop
vertex 6.39837599233946 12.3625791076011 9.99999999999998
vertex 6.55187195458764 2.48688850874527 9.99999999999997
vertex 6.70779731848049 12.3085233815811 9.99999999999999
endloop
endfacet
facet normal 0.0 0.0 1.0
outer loop
vertex 6.70779731848049 12.3085233815811 9.99999999999999
vertex 6.55187195458764 2.48688850874527 9.99999999999997
vertex 6.85946386782706 2.55053435304106 9.99999999999997
endloop
endfacet
facet normal 0.0 0.0 1.0
outer loop
vertex 6.70779731848049 12.3085233815811 9.99999999999999
vertex 6.85946386782706 2.55053435304106 9.99999999999997
vertex 7.01321388519469 12.2351455963667 9.99999999999998
endloop
endfacet
facet normal 0.0 0.0 1.0
outer loop
vertex 7.01321388519469 12.2351455963667 9.99999999999998
vertex 6.85946386782706 2.55053435304106 9.99999999999997
vertex 7.16245246305924 2.63336846283697 9.99999999999997
endloop
endfacet
facet normal 0.0 0.0 1.0
outer loop
vertex 7.01321388519469 12.2351455963667 9.99999999999998
vertex 7.16245246305924 2.63336846283697 9.99999999999997
vertex 7.31342035282472 12.1427353405531 9.99999999999998
endloop
endfacet
facet normal 0.0 0.0 1.0
outer loop
vertex 7.31342035282472 12.1427353405531 9.99999999999998
vertex 7.16245246305924 2.63336846283697 9.99999999999997
vertex 7.45964198272098 2.73506392974492 9.99999999999998
endloop
endfacet
facet normal 0.0 0.0 1.0
outer loop
vertex 7.31342035282472 12.1427353405531 9.99999999999998
vertex 7.45964198272098 2.73506392974492 9.99999999999998
vertex 7.60723194359403 12.0316573152016 9.99999999999997
endloop
endfacet
facet normal 0.0 0.0 1.0
outer loop
vertex 7.60723194359403 12.0316573152016 9.99999999999997
vertex 7.45964198272098 2.73506392974492 9.99999999999998
vertex 7.74985955555127 2.85521940821728 9.99999999999998
endloop
endfacet
facet normal 0.0 0.0 1.0
outer loop
vertex 7.60723194359403 12.0316573152016 9.99999999999997
vertex 7.74985955555127 2.85521940821728 9.99999999999998
vertex 7.89348911738382 11.9023498945317 9.99999999999998
endloop
endfacet
facet normal 0.0 0.0 1.0
outer loop
vertex 7.89348911738382 11.9023498945317 9.99999999999998
vertex 7.74985955555127 2.85521940821728 9.99999999999998
vertex 8.03195982537796 2.99336069947434 9.99999999999997
endloop
endfacet
facet normal 0.0 0.0 1.0
outer loop
vertex 7.89348911738382 11.9023498945317 9.99999999999998
vertex 8.03195982537796 2.99336069947434 9.99999999999997
vertex 8.17106214790753 11.7553233958578 9.99999999999997
endloop
endfacet
facet normal 0.0 0.0 1.0
outer loop
vertex 8.17106214790753 11.7553233958578 9.99999999999997
vertex 8.03195982537796 2.99336069947434 9.99999999999997
vertex 8.30482947131523 3.14894262295025 9.99999999999997
endloop
endfacet
facet normal 0.0 0.0 1.0
outer loop
vertex 8.17106214790753 11.7553233958578 9.99999999999997
vertex 8.30482947131523 3.14894262295025 9.99999999999997
vertex 8.43885558122457 11.5911580656 9.99999999999997
endloop
endfacet
facet normal 0.0 0.0 1.0
outer loop
vertex 8.43885558122457 11.5911580656 9.99999999999997
vertex 8.30482947131523 3.14894262295025 9.99999999999997
vertex 8.56739160153303 3.32135116787167 9.99999999999998
endloop
endfacet
facet normal 0.0 0.0 1.0
outer loop
vertex 8.43885558122457 11.5911580656 9.99999999999997
vertex 8.56739160153303 3.32135116787167 9.99999999999998
vertex 8.69581255899708 11.410501789317 9.99999999999999
endloop
endfacet
facet normal 0.0 0.0 1.0
outer loop
vertex 8.69581255899708 11.410501789317 9.99999999999999
vertex 8.56739160153303 3.32135116787167 9.99999999999998
vertex 8.81861000325649 3.50990591647777 9.99999999999997
endloop
endfacet
facet normal 0.0 0.0 1.0
outer loop
vertex 8.69581255899708 11.410501789317 9.99999999999999
vertex 8.81861000325649 3.50990591647777 9.99999999999997
vertex 8.94091898942631 11.2140675347972 9.99999999999997
endloop
endfacet
facet normal 0.0 0.0 1.0
outer loop
vertex 8.94091898942631 11.2140675347972 9.99999999999997
vertex 8.81861000325649 3.50990591647777 9.99999999999997
vertex 9.0574932322248 3.71386272931828 9.99999999999998
endloop
endfacet
facet normal 0.0 0.0 1.0
outer loop
vertex 8.94091898942631 11.2140675347972 9.99999999999997
vertex 9.0574932322248 3.71386272931828 9.99999999999998
vertex 9.17320754940948 11.002630538301 9.99999999999998
endloop
endfacet
facet normal 0.0 0.0 1.0
outer loop
vertex 9.17320754940948 11.002630538301 9.99999999999998
vertex 9.0574932322248 3.71386272931828 9.99999999999998
vertex 9.28309852546879 3.93241668203191 9.99999999999998
endloop
endfacet
facet normal 0.0 0.0 1.0
outer loop
vertex 9.17320754940948 11.002630538301 9.99999999999998
vertex 9.28309852546879 3.93241668203191 9.99999999999998
vertex 9.39176150212309 10.7770252450571 9.99999999999997
endloop
endfacet
facet normal 0.0 0.0 1.0
outer loop
vertex 9.39176150212309 10.7770252450571 9.99999999999997
vertex 9.28309852546879 3.93241668203191 9.99999999999998
vertex 9.49453552196496 4.16470524201511 9.99999999999997
endloop
endfacet
facet normal 0.0 0.0 1.0
outer loop
vertex 9.39176150212309 10.7770252450571 9.99999999999997
vertex 9.49453552196496 4.16470524201511 9.99999999999997
vertex 9.59571831496353 10.5381420160887 9.99999999999997
endloop
endfacet
facet normal 0.0 0.0 1.0
outer loop
vertex 9.59571831496353 10.5381420160887 9.99999999999997
vertex 9.49453552196496 4.16470524201511 9.99999999999997
vertex 9.69096977648485 4.40981167244418 9.99999999999998
endloop
endfacet
facet normal 0.0 0.0 1.0
outer loop
vertex 9.59571831496353 10.5381420160887 9.99999999999997
vertex 9.69096977648485 4.40981167244418 9.99999999999998
vertex 9.78427306356972 10.2869236143652 9.99999999999998
endloop
endfacet
facet normal 0.0 0.0 1.0
outer loop
vertex 9.78427306356972 10.2869236143652 9.99999999999998
vertex 9.69096977648485 4.40981167244418 9.99999999999998
vertex 9.8716260527677 4.66676865021668 9.99999999999997
endloop
endfacet
facet normal 0.0 0.0 1.0
outer loop
vertex 9.78427306356972 10.2869236143652 9.99999999999998
vertex 9.8716260527677 4.66676865021668 9.99999999999997
vertex 9.95668160849106 10.0243614841474 9.99999999999998
endloop
endfacet
facet normal 0.0 0.0 1.0
outer loop
vertex 9.95668160849106 10.0243614841474 9.99999999999998
vertex 9.8716260527677 4.66676865021668 9.99999999999997
vertex 10.0357913830255 4.93456208353383 9.99999999999998
endloop
endfacet
facet normal 0.0 0.0 1.0
outer loop
vertex 9.95668160849106 10.0243614841474 9.99999999999998
vertex 10.0357913830255 4.93456208353383 9.99999999999998
vertex 10.1122635319669 9.75149183821012 9.99999999999999
endloop
endfacet
facet normal 0.0 0.0 1.0
outer loop
vertex 10.1122635319669 9.75149183821012 9.99999999999999
vertex 10.0357913830255 4.93456208353383 9.99999999999998
vertex 10.1828178816995 5.2121351140575 9.99999999999998
endloop
endfacet
facet normal 0.0 0.0 1.0
outer loop
vertex 10.1122635319669 9.75149183821012 9.99999999999999
vertex 10.1828178816995 5.2121351140575 9.99999999999998
vertex 10.2504048232241 9.4693915683835 9.99999999999998
endloop
endfacet
facet normal 0.0 0.0 1.0
outer loop
vertex 10.2504048232241 9.4693915683835 9.99999999999998
vertex 10.1828178816995 5.2121351140575 9.99999999999998
vertex 10.3121253023694 5.49839228784727 9.99999999999999
endloop
endfacet
facet normal 0.0 0.0 1.0
outer loop
vertex 10.2504048232241 9.4693915683835 9.99999999999998
vertex 10.3121253023694 5.49839228784727 9.99999999999999
vertex 10.3705603016964 9.17917399555322 9.99999999999997
endloop
endfacet
facet normal 0.0 0.0 1.0
outer loop
vertex 10.3705603016964 9.17917399555322 9.99999999999997
vertex 10.3121253023694 5.49839228784727 9.99999999999999
vertex 10.4232033277209 5.79220387861667 9.99999999999998
endloop
endfacet
facet normal 0.0 0.0 1.0
outer loop
vertex 10.3705603016964 9.17917399555322 9.99999999999997
vertex 10.4232033277209 5.79220387861667 9.99999999999998
vertex 10.4722557686043 8.88198447589145 9.99999999999998
endloop
endfacet
facet normal 0.0 0.0 1.0
outer loop
vertex 10.4722557686043 8.88198447589145 9.99999999999998
vertex 10.4232033277209 5.79220387861667 9.99999999999998
vertex 10.5156135835344 6.09241034624666 9.99999999999998
endloop
endfacet
facet normal 0.0 0.0 1.0
outer loop
vertex 10.4722557686043 8.88198447589145 9.99999999999998
vertex 10.5156135835344 6.09241034624666 9.99999999999998
vertex 10.5550898784003 8.57899588065932 9.99999999999997
endloop
endfacet
facet normal 0.0 0.0 1.0
outer loop
vertex 10.5550898784003 8.57899588065932 9.99999999999997
vertex 10.5156135835344 6.09241034624666 9.99999999999998
vertex 10.5889913687488 6.3978269129608 9.99999999999999
endloop
endfacet
facet normal 0.0 0.0 1.0
outer loop
vertex 10.5550898784003 8.57899588065932 9.99999999999997
vertex 10.5889913687488 6.3978269129608 9.99999999999999
vertex 10.6187357226961 8.27140396741989 9.99999999999998
endloop
endfacet
facet normal 0.0 0.0 1.0
outer loop
vertex 10.6187357226961 8.27140396741989 9.99999999999998
vertex 10.5889913687488 6.3978269129608 9.99999999999999
vertex 10.6430470947688 6.70724823910183 9.99999999999998
endloop
endfacet
facet normal 0.0 0.0 1.0
outer loop
vertex 10.6187357226961 8.27140396741989 9.99999999999998
vertex 10.6430470947688 6.70724823910183 9.99999999999998
vertex 10.6629421204214 7.96042266092933 9.99999999999997
endloop
endfacet
facet normal 0.0 0.0 1.0
outer loop
vertex 10.6629421204214 7.96042266092933 9.99999999999997
vertex 10.6430470947688 6.70724823910183 9.99999999999998
vertex 10.6775674283395 7.01945318005663 9.99999999999997
endloop
endfacet
facet normal 0.0 0.0 1.0
outer loop
vertex 10.6629421204214 7.96042266092933 9.99999999999997
vertex 10.6775674283395 7.01945318005663 9.99999999999997
vertex 10.6875346091203 7.64727926233052 9.99999999999998
endloop
endfacet
facet normal 0.0 0.0 1.0
outer loop
vertex 10.6875346091203 7.64727926233052 9.99999999999998
vertex 10.6775674283395 7.01945318005663 9.99999999999997
vertex 10.6924161334751 7.33320960555612 9.99999999999998
endloop
endfacet
facet normal 0.353319174683294 -0.935502838478385 0.0
outer loop
vertex 7.45964198272098 2.73506392974492 9.99999999999998
vertex 7.16245246305924 2.63336846283697 0.0
vertex 7.45964198272098 2.73506392974492 0.0
endloop
endfacet
facet normal 0.293881270750923 -0.955841931859982 0.0
outer loop
vertex 7.16245246305924 2.63336846283697 0.0
vertex 7.45964198272098 2.73506392974492 9.99999999999998
vertex 7.16245246305924 2.63336846283697 9.99999999999997
endloop
endfacet
facet normal 0.897954354478986 -0.440088601615889 0.0
outer loop
vertex 10.1828178816995 5.2121351140575 -4.51194637207664e-014
vertex 10.0357913830255 4.93456208353383 9.99999999999998
vertex 10.0357913830255 4.93456208353383 -4.51194637207664e-014
endloop
endfacet
facet normal 0.868549054744156 -0.495603207720686 0.0
outer loop
vertex 10.0357913830255 4.93456208353383 9.99999999999998
vertex 10.1828178816995 5.2121351140575 -4.51194637207664e-014
vertex 10.1828178816995 5.2121351140575 9.99999999999998
endloop
endfacet
facet normal 0.760297882532057 -0.649574576024393 0.0
outer loop
vertex 9.49453552196496 4.16470524201511 0.0
vertex 9.28309852546879 3.93241668203191 9.99999999999998
vertex 9.28309852546879 3.93241668203191 0.0
endloop
endfacet
facet normal 0.71801048323283 -0.696032288021007 0.0
outer loop
vertex 9.28309852546879 3.93241668203191 9.99999999999998
vertex 9.49453552196496 4.16470524201511 0.0
vertex 9.49453552196496 4.16470524201511 9.99999999999997
endloop
endfacet
facet normal -0.26403355517799 -0.964513494846014 0.0
outer loop
vertex 4.37287833341439 2.59001064790684 9.99999999999997
vertex 4.07267186578436 2.68242090372048 0.0
vertex 4.37287833341439 2.59001064790684 -4.51194637207664e-014
endloop
endfacet
facet normal -0.324074848704056 -0.946031443683266 -1.01024045136169e-028
outer loop
vertex 4.07267186578436 2.68242090372048 0.0
vertex 4.37287833341439 2.59001064790684 9.99999999999997
vertex 4.07267186578436 2.68242090372048 9.99999999999998
endloop
endfacet
facet normal 0.835715988692711 -0.549161894383947 0.0
outer loop
vertex 9.8716260527677 4.66676865021668 -4.51194637207664e-014
vertex 9.69096977648485 4.40981167244418 9.99999999999998
vertex 9.69096977648485 4.40981167244418 0.0
endloop
endfacet
facet normal 0.799584733436097 -0.600553289938475 0.0
outer loop
vertex 9.69096977648485 4.40981167244418 9.99999999999998
vertex 9.8716260527677 4.66676865021668 -4.51194637207664e-014
vertex 9.8716260527677 4.66676865021668 9.99999999999997
endloop
endfacet
facet normal 0.233283551704493 -0.972408753819163 0.0
outer loop
vertex 6.85946386782706 2.55053435304106 9.99999999999997
vertex 6.55187195458764 2.48688850874527 0.0
vertex 6.85946386782706 2.55053435304106 -4.51194637207664e-014
endloop
endfacet
facet normal 0.171765169056633 -0.985137922678315 0.0
outer loop
vertex 6.55187195458764 2.48688850874527 0.0
vertex 6.85946386782706 2.55053435304106 9.99999999999997
vertex 6.55187195458764 2.48688850874527 9.99999999999997
endloop
endfacet
facet normal -0.818245390853034 -0.574869098445695 0.0
outer loop
vertex 1.60181915503937 4.53823262990837 9.99999999999999
vertex 1.79037390364556 4.28701422818487 0.0
vertex 1.79037390364556 4.28701422818487 9.99999999999997
endloop
endfacet
facet normal -0.780534441131794 -0.625112778790418 0.0
outer loop
vertex 1.79037390364556 4.28701422818487 0.0
vertex 1.60181915503937 4.53823262990837 9.99999999999999
vertex 1.60181915503937 4.53823262990837 -4.51194637207664e-014
endloop
endfacet
facet normal 0.672889424584056 -0.739743078563726 0.0
outer loop
vertex 9.0574932322248 3.71386272931828 0.0
vertex 8.81861000325649 3.50990591647777 9.99999999999997
vertex 8.81861000325649 3.50990591647777 -4.51194637207664e-014
endloop
endfacet
facet normal 0.625112778790488 -0.780534441131738 0.0
outer loop
vertex 8.81861000325649 3.50990591647777 9.99999999999997
vertex 9.0574932322248 3.71386272931828 0.0
vertex 9.0574932322248 3.71386272931828 9.99999999999998
endloop
endfacet
facet normal -0.883843484532466 -0.467782743214743 0.0
outer loop
vertex 1.27382868664215 5.07366440606346 9.99999999999998
vertex 1.42941061011803 4.80079476012614 0.0
vertex 1.42941061011803 4.80079476012614 9.99999999999999
endloop
endfacet
facet normal -0.852727099837399 -0.522356672402009 0.0
outer loop
vertex 1.42941061011803 4.80079476012614 0.0
vertex 1.27382868664215 5.07366440606346 9.99999999999998
vertex 1.27382868664215 5.07366440606346 0.0
endloop
endfacet
facet normal -0.998897699963151 -0.046940228038715 0.0
outer loop
vertex 0.698557609488812 7.17787698194306 9.99999999999999
vertex 0.723150098187695 6.86473358334425 -4.51194637207664e-014
vertex 0.723150098187695 6.86473358334425 9.99999999999997
endloop
endfacet
facet normal -0.993979202223363 -0.109568907758573 -1.26280056420212e-029
outer loop
vertex 0.723150098187695 6.86473358334425 -4.51194637207664e-014
vertex 0.698557609488812 7.17787698194306 9.99999999999999
vertex 0.698557609488812 7.17787698194306 -4.51194637207664e-014
endloop
endfacet
facet normal -0.996904263806996 0.0786249884161022 0.0
outer loop
vertex 0.708524790269604 7.80570306421695 9.99999999999998
vertex 0.693676085133941 7.49194663871746 -4.51194637207664e-014
vertex 0.693676085133941 7.49194663871746 9.99999999999998
endloop
endfacet
facet normal -0.999874004834124 0.0158737033162123 0.0
outer loop
vertex 0.693676085133941 7.49194663871746 -4.51194637207664e-014
vertex 0.708524790269604 7.80570306421695 9.99999999999998
vertex 0.708524790269604 7.80570306421695 0.0
endloop
endfacet
facet normal -0.979189051888847 0.202950241835337 0.0
outer loop
vertex 0.797100849860284 8.42732933131277 9.99999999999998
vertex 0.743045123840274 8.11790800517174 0.0
vertex 0.743045123840274 8.11790800517174 9.99999999999997
endloop
endfacet
facet normal -0.990000197092856 0.141065976607072 0.0
outer loop
vertex 0.743045123840274 8.11790800517174 0.0
vertex 0.797100849860284 8.42732933131277 9.99999999999998
vertex 0.797100849860284 8.42732933131278 0.0
endloop
endfacet
facet normal 0.985137922678303 0.171765169056705 0.0
outer loop
vertex 10.6187357226961 8.27140396741989 0.0
vertex 10.5550898784003 8.57899588065932 9.99999999999997
vertex 10.6187357226961 8.27140396741989 9.99999999999998
endloop
endfacet
facet normal 0.972408753819128 0.233283551704637 0.0
outer loop
vertex 10.5550898784003 8.57899588065932 9.99999999999997
vertex 10.6187357226961 8.27140396741989 0.0
vertex 10.5550898784003 8.57899588065932 -4.51194637207664e-014
endloop
endfacet
facet normal -0.946031443683328 0.324074848703872 0.0
outer loop
vertex 0.962888890888239 9.03295236565691 9.99999999999999
vertex 0.870478635074681 8.73274589802692 -4.51194637207664e-014
vertex 0.870478635074681 8.73274589802692 9.99999999999999
endloop
endfacet
facet normal -0.96451349484602 0.264033555177966 0.0
outer loop
vertex 0.870478635074681 8.73274589802692 -4.51194637207664e-014
vertex 0.962888890888239 9.03295236565691 9.99999999999999
vertex 0.962888890888239 9.03295236565691 0.0
endloop
endfacet
facet normal -0.897954354478986 0.440088601615889 0.0
outer loop
vertex 1.20327433690962 9.61302113021608 9.99999999999999
vertex 1.07396691623967 9.32676395642631 -4.51194637207664e-014
vertex 1.07396691623967 9.32676395642631 9.99999999999998
endloop
endfacet
facet normal -0.923815838612985 0.382837166857905 0.0
outer loop
vertex 1.07396691623967 9.32676395642631 -4.51194637207664e-014
vertex 1.20327433690962 9.61302113021608 9.99999999999999
vertex 1.20327433690962 9.61302113021608 -4.51194637207664e-014
endloop
endfacet
facet normal -0.835715988692709 0.54916189438395 5.05120225680876e-029
outer loop
vertex 1.51446616584139 10.1583875940569 9.99999999999998
vertex 1.35030083558357 9.89059416073975 -4.51194637207664e-014
vertex 1.35030083558357 9.89059416073975 9.99999999999999
endloop
endfacet
facet normal -0.868549054744158 0.495603207720683 5.05120225680848e-029
outer loop
vertex 1.35030083558357 9.89059416073975 -4.51194637207664e-014
vertex 1.51446616584139 10.1583875940569 9.99999999999998
vertex 1.51446616584139 10.1583875940569 0.0
endloop
endfacet
facet normal -0.718010483232833 0.696032288021004 0.0
outer loop
vertex 2.1029936931403 10.8927395622417 9.99999999999997
vertex 2.32859898638429 11.1112935149553 0.0
vertex 2.1029936931403 10.8927395622417 -4.51194637207664e-014
endloop
endfacet
facet normal -0.672889424584057 0.739743078563724 5.05120225680843e-029
outer loop
vertex 2.32859898638429 11.1112935149553 0.0
vertex 2.1029936931403 10.8927395622417 9.99999999999997
vertex 2.32859898638429 11.1112935149553 9.99999999999997
endloop
endfacet
facet normal -0.760297882532059 0.649574576024391 0.0
outer loop
vertex 1.89155669664413 10.6604510022585 9.99999999999998
vertex 1.69512244212424 10.4153445718294 -4.51194637207664e-014
vertex 1.69512244212424 10.4153445718294 9.99999999999997
endloop
endfacet
facet normal -0.799584733436096 0.600553289938477 0.0
outer loop
vertex 1.69512244212424 10.4153445718294 -4.51194637207664e-014
vertex 1.89155669664413 10.6604510022585 9.99999999999998
vertex 1.89155669664413 10.6604510022585 0.0
endloop
endfacet
facet normal 0.0469402280387418 -0.99889769996315 0.0
outer loop
vertex 5.92774724949826 2.41808962232111 9.99999999999998
vertex 5.61367759272394 2.41320809796624 0.0
vertex 5.92774724949826 2.41808962232111 -4.51194637207664e-014
endloop
endfacet
facet normal -0.0158737033161304 -0.999874004834125 0.0
outer loop
vertex 5.61367759272394 2.41320809796624 0.0
vertex 5.92774724949826 2.41808962232111 9.99999999999998
vertex 5.61367759272394 2.41320809796624 9.99999999999998
endloop
endfacet
facet normal -0.440088601615833 -0.897954354479013 0.0
outer loop
vertex 3.49260310122527 2.92280634974186 0.0
vertex 3.21503007070156 3.06983284841582 9.99999999999997
vertex 3.21503007070156 3.06983284841582 -4.51194637207664e-014
endloop
endfacet
facet normal -0.495603207720652 -0.868549054744175 0.0
outer loop
vertex 3.21503007070156 3.06983284841582 9.99999999999997
vertex 3.49260310122527 2.92280634974186 0.0
vertex 3.49260310122527 2.92280634974186 9.99999999999998
endloop
endfacet
facet normal -0.0158737033161304 -0.999874004834125 0.0
outer loop
vertex 5.61367759272394 2.41320809796624 0.0
vertex 5.29992116722433 2.42805680310185 9.99999999999997
vertex 5.29992116722433 2.42805680310185 -4.51194637207664e-014
endloop
endfacet
facet normal -0.0786249884160386 -0.996904263807001 0.0
outer loop
vertex 5.29992116722433 2.42805680310185 9.99999999999997
vertex 5.61367759272394 2.41320809796624 0.0
vertex 5.61367759272394 2.41320809796624 9.99999999999998
endloop
endfacet
facet normal 0.999874004834124 -0.0158737033162135 0.0
outer loop
vertex 10.6924161334751 7.33320960555612 -4.51194637207664e-014
vertex 10.6775674283395 7.01945318005663 9.99999999999997
vertex 10.6775674283395 7.01945318005663 -4.51194637207664e-014
endloop
endfacet
facet normal 0.996904263806996 -0.0786249884161018 0.0
outer loop
vertex 10.6775674283395 7.01945318005663 9.99999999999997
vertex 10.6924161334751 7.33320960555612 -4.51194637207664e-014
vertex 10.6924161334751 7.33320960555612 9.99999999999998
endloop
endfacet
facet normal -0.600553289938532 -0.799584733436054 5.05120225680869e-029
outer loop
vertex 2.69027965961201 3.41465445495657 9.99999999999998
vertex 2.44517322918296 3.61108870947634 0.0
vertex 2.69027965961201 3.41465445495657 0.0
endloop
endfacet
facet normal -0.649574576024233 -0.760297882532194 5.05120225680843e-029
outer loop
vertex 2.44517322918296 3.61108870947634 0.0
vertex 2.69027965961201 3.41465445495657 9.99999999999998
vertex 2.44517322918296 3.61108870947634 9.99999999999998
endloop
endfacet
facet normal 0.411362689249301 -0.911471742783934 0.0
outer loop
vertex 7.74985955555127 2.85521940821728 9.99999999999998
vertex 7.45964198272098 2.73506392974492 0.0
vertex 7.74985955555127 2.85521940821728 0.0
endloop
endfacet
facet normal 0.353319174683294 -0.935502838478385 0.0
outer loop
vertex 7.45964198272098 2.73506392974492 0.0
vertex 7.74985955555127 2.85521940821728 9.99999999999998
vertex 7.45964198272098 2.73506392974492 9.99999999999998
endloop
endfacet
facet normal 0.96451349484602 -0.264033555177966 0.0
outer loop
vertex 10.5156135835344 6.09241034624666 -4.51194637207664e-014
vertex 10.4232033277209 5.79220387861667 9.99999999999998
vertex 10.4232033277209 5.79220387861667 0.0
endloop
endfacet
facet normal 0.946031443683328 -0.324074848703873 0.0
outer loop
vertex 10.4232033277209 5.79220387861667 9.99999999999998
vertex 10.5156135835344 6.09241034624666 -4.51194637207664e-014
vertex 10.5156135835344 6.09241034624666 9.99999999999998
endloop
endfacet
facet normal 0.897954354478986 -0.440088601615889 0.0
outer loop
vertex 10.1828178816995 5.2121351140575 -4.51194637207664e-014
vertex 10.3121253023694 5.49839228784727 9.99999999999999
vertex 10.1828178816995 5.2121351140575 9.99999999999998
endloop
endfacet
facet normal 0.923815838612986 -0.382837166857904 0.0
outer loop
vertex 10.3121253023694 5.49839228784727 9.99999999999999
vertex 10.1828178816995 5.2121351140575 -4.51194637207664e-014
vertex 10.3121253023694 5.49839228784727 -4.51194637207664e-014
endloop
endfacet
facet normal -0.911471742783901 -0.411362689249375 0.0
outer loop
vertex 1.13568739538501 5.35576467589008 9.99999999999998
vertex 1.27382868664215 5.07366440606346 0.0
vertex 1.27382868664215 5.07366440606346 9.99999999999998
endloop
endfacet
facet normal -0.883843484532466 -0.467782743214742 0.0
outer loop
vertex 1.27382868664215 5.07366440606346 0.0
vertex 1.13568739538501 5.35576467589008 9.99999999999998
vertex 1.13568739538501 5.35576467589008 0.0
endloop
endfacet
facet normal -0.780534441131793 -0.625112778790419 0.0
outer loop
vertex 1.79037390364556 4.28701422818487 9.99999999999997
vertex 1.994330716486 4.04813099921649 0.0
vertex 1.994330716486 4.04813099921649 9.99999999999997
endloop
endfacet
facet normal -0.739743078563784 -0.672889424583991 0.0
outer loop
vertex 1.994330716486 4.04813099921649 0.0
vertex 1.79037390364556 4.28701422818487 9.99999999999997
vertex 1.79037390364556 4.28701422818487 0.0
endloop
endfacet
facet normal -0.649574576024233 -0.760297882532194 5.05120225680843e-029
outer loop
vertex 2.44517322918296 3.61108870947634 0.0
vertex 2.2128846691996 3.82252570597258 9.99999999999999
vertex 2.2128846691996 3.82252570597258 -4.51194637207664e-014
endloop
endfacet
facet normal -0.696032288020893 -0.71801048323294 0.0
outer loop
vertex 2.2128846691996 3.82252570597258 9.99999999999999
vertex 2.44517322918296 3.61108870947634 0.0
vertex 2.44517322918296 3.61108870947634 9.99999999999998
endloop
endfacet
facet normal -0.549161894384094 -0.835715988692614 0.0
outer loop
vertex 2.94723663738452 3.23399817867356 9.99999999999998
vertex 2.69027965961201 3.41465445495657 0.0
vertex 2.94723663738452 3.23399817867356 0.0
endloop
endfacet
facet normal -0.600553289938532 -0.799584733436054 5.05120225680869e-029
outer loop
vertex 2.69027965961201 3.41465445495657 0.0
vertex 2.94723663738452 3.23399817867356 9.99999999999998
vertex 2.69027965961201 3.41465445495657 9.99999999999998
endloop
endfacet
facet normal 0.109568907758511 -0.99397920222337 0.0
outer loop
vertex 6.24089064809709 2.44268211102001 0.0
vertex 5.92774724949826 2.41808962232111 9.99999999999998
vertex 5.92774724949826 2.41808962232111 -4.51194637207664e-014
endloop
endfacet
facet normal 0.0469402280387418 -0.99889769996315 0.0
outer loop
vertex 5.92774724949826 2.41808962232111 9.99999999999998
vertex 6.24089064809709 2.44268211102001 0.0
vertex 6.24089064809709 2.44268211102001 9.99999999999998
endloop
endfacet
facet normal 0.955841931859956 0.293881270751009 0.0
outer loop
vertex 10.4722557686043 8.88198447589145 0.0
vertex 10.3705603016964 9.17917399555322 9.99999999999997
vertex 10.4722557686043 8.88198447589145 9.99999999999998
endloop
endfacet
facet normal 0.935502838478441 0.353319174683147 0.0
outer loop
vertex 10.3705603016964 9.17917399555322 9.99999999999997
vertex 10.4722557686043 8.88198447589145 0.0
vertex 10.3705603016964 9.17917399555322 -4.51194637207664e-014
endloop
endfacet
facet normal 0.946031443683328 -0.324074848703873 0.0
outer loop
vertex 10.4232033277209 5.79220387861667 0.0
vertex 10.3121253023694 5.49839228784727 9.99999999999999
vertex 10.3121253023694 5.49839228784727 -4.51194637207664e-014
endloop
endfacet
facet normal 0.923815838612986 -0.382837166857904 0.0
outer loop
vertex 10.3121253023694 5.49839228784727 9.99999999999999
vertex 10.4232033277209 5.79220387861667 0.0
vertex 10.4232033277209 5.79220387861667 9.99999999999998
endloop
endfacet
facet normal 0.979189051888846 -0.202950241835338 0.0
outer loop
vertex 10.5889913687488 6.3978269129608 0.0
vertex 10.5156135835344 6.09241034624666 9.99999999999998
vertex 10.5156135835344 6.09241034624666 -4.51194637207664e-014
endloop
endfacet
facet normal 0.96451349484602 -0.264033555177966 0.0
outer loop
vertex 10.5156135835344 6.09241034624666 9.99999999999998
vertex 10.5889913687488 6.3978269129608 0.0
vertex 10.5889913687488 6.3978269129608 9.99999999999999
endloop
endfacet
facet normal -0.739743078563785 -0.672889424583991 0.0
outer loop
vertex 1.994330716486 4.04813099921649 9.99999999999997
vertex 2.2128846691996 3.82252570597258 -4.51194637207664e-014
vertex 2.2128846691996 3.82252570597258 9.99999999999999
endloop
endfacet
facet normal -0.696032288020893 -0.71801048323294 0.0
outer loop
vertex 2.2128846691996 3.82252570597258 -4.51194637207664e-014
vertex 1.994330716486 4.04813099921649 9.99999999999997
vertex 1.994330716486 4.04813099921649 0.0
endloop
endfacet
facet normal -0.985137922678303 -0.171765169056703 -1.26280056420215e-029
outer loop
vertex 0.767356495913015 6.55375227685369 9.99999999999998
vertex 0.831002340208802 6.24616036361425 0.0
vertex 0.831002340208802 6.24616036361425 9.99999999999998
endloop
endfacet
facet normal -0.972408753819128 -0.23328355170464 0.0
outer loop
vertex 0.831002340208802 6.24616036361425 0.0
vertex 0.767356495913015 6.55375227685369 9.99999999999998
vertex 0.767356495913015 6.55375227685369 0.0
endloop
endfacet
facet normal -0.955841931859956 -0.29388127075101 0.0
outer loop
vertex 0.913836450004794 5.94317176838212 9.99999999999997
vertex 1.01553191691271 5.64598224872036 0.0
vertex 1.01553191691271 5.64598224872035 9.99999999999997
endloop
endfacet
facet normal -0.935502838478442 -0.353319174683144 0.0
outer loop
vertex 1.01553191691271 5.64598224872036 0.0
vertex 0.913836450004794 5.94317176838212 9.99999999999997
vertex 0.913836450004794 5.94317176838213 -4.51194637207664e-014
endloop
endfacet
facet normal 0.979189051888846 -0.202950241835338 0.0
outer loop
vertex 10.5889913687488 6.3978269129608 0.0
vertex 10.6430470947688 6.70724823910183 9.99999999999998
vertex 10.5889913687488 6.3978269129608 9.99999999999999
endloop
endfacet
facet normal 0.990000197092856 -0.141065976607073 0.0
outer loop
vertex 10.6430470947688 6.70724823910183 9.99999999999998
vertex 10.5889913687488 6.3978269129608 0.0
vertex 10.6430470947688 6.70724823910183 0.0
endloop
endfacet
facet normal -0.625112778790482 0.780534441131743 5.05120225680864e-029
outer loop
vertex 2.5674822153526 11.3152503277958 9.99999999999997
vertex 2.81870061707606 11.5038050764019 0.0
vertex 2.5674822153526 11.3152503277958 0.0
endloop
endfacet
facet normal -0.574869098445707 0.818245390853025 0.0
outer loop
vertex 2.81870061707606 11.5038050764019 0.0
vertex 2.5674822153526 11.3152503277958 9.99999999999997
vertex 2.81870061707606 11.5038050764019 9.99999999999998
endloop
endfacet
facet normal -0.522356672402033 0.852727099837384 0.0
outer loop
vertex 3.08126274729386 11.6762136213233 9.99999999999998
vertex 3.35413239323131 11.8317955447992 0.0
vertex 3.08126274729386 11.6762136213233 0.0
endloop
endfacet
facet normal -0.467782743214648 0.883843484532515 0.0
outer loop
vertex 3.35413239323131 11.8317955447992 0.0
vertex 3.08126274729386 11.6762136213233 9.99999999999998
vertex 3.35413239323131 11.8317955447992 9.99999999999997
endloop
endfacet
facet normal -0.852727099837399 -0.522356672402008 0.0
outer loop
vertex 1.42941061011803 4.80079476012614 9.99999999999999
vertex 1.60181915503937 4.53823262990837 -4.51194637207664e-014
vertex 1.60181915503937 4.53823262990837 9.99999999999999
endloop
endfacet
facet normal -0.818245390853033 -0.574869098445695 0.0
outer loop
vertex 1.60181915503937 4.53823262990837 -4.51194637207664e-014
vertex 1.42941061011803 4.80079476012614 9.99999999999999
vertex 1.42941061011803 4.80079476012614 0.0
endloop
endfacet
facet normal -0.202950241835177 -0.97918905188888 0.0
outer loop
vertex 4.6782949001286 2.51663286269248 0.0
vertex 4.37287833341439 2.59001064790684 9.99999999999997
vertex 4.37287833341439 2.59001064790684 -4.51194637207664e-014
endloop
endfacet
facet normal -0.26403355517799 -0.964513494846014 0.0
outer loop
vertex 4.37287833341439 2.59001064790684 9.99999999999997
vertex 4.6782949001286 2.51663286269248 0.0
vertex 4.6782949001286 2.51663286269248 9.99999999999998
endloop
endfacet
facet normal 0.625112778790488 -0.780534441131738 0.0
outer loop
vertex 8.81861000325649 3.50990591647777 9.99999999999997
vertex 8.56739160153303 3.32135116787167 0.0
vertex 8.81861000325649 3.50990591647777 -4.51194637207664e-014
endloop
endfacet
facet normal 0.574869098445704 -0.818245390853028 0.0
outer loop
vertex 8.56739160153303 3.32135116787167 0.0
vertex 8.81861000325649 3.50990591647777 9.99999999999997
vertex 8.56739160153303 3.32135116787167 9.99999999999998
endloop
endfacet
facet normal 0.293881270750923 -0.955841931859982 0.0
outer loop
vertex 7.16245246305924 2.63336846283697 0.0
vertex 6.85946386782706 2.55053435304106 9.99999999999997
vertex 6.85946386782706 2.55053435304106 -4.51194637207664e-014
endloop
endfacet
facet normal 0.233283551704493 -0.972408753819163 0.0
outer loop
vertex 6.85946386782706 2.55053435304106 9.99999999999997
vertex 7.16245246305924 2.63336846283697 0.0
vertex 7.16245246305924 2.63336846283697 9.99999999999997
endloop
endfacet
facet normal 0.171765169056631 -0.985137922678316 0.0
outer loop
vertex 6.55187195458764 2.48688850874527 9.99999999999997
vertex 6.24089064809709 2.44268211102001 0.0
vertex 6.55187195458764 2.48688850874527 0.0
endloop
endfacet
facet normal 0.109568907758511 -0.99397920222337 0.0
outer loop
vertex 6.24089064809709 2.44268211102001 0.0
vertex 6.55187195458764 2.48688850874527 9.99999999999997
vertex 6.24089064809709 2.44268211102001 9.99999999999998
endloop
endfacet
facet normal 0.71801048323283 -0.696032288021007 0.0
outer loop
vertex 9.28309852546879 3.93241668203191 9.99999999999998
vertex 9.0574932322248 3.71386272931828 0.0
vertex 9.28309852546879 3.93241668203191 0.0
endloop
endfacet
facet normal 0.672889424584056 -0.739743078563726 0.0
outer loop
vertex 9.0574932322248 3.71386272931828 0.0
vertex 9.28309852546879 3.93241668203191 9.99999999999998
vertex 9.0574932322248 3.71386272931828 9.99999999999998
endloop
endfacet
facet normal 0.799584733436098 -0.600553289938474 0.0
outer loop
vertex 9.69096977648485 4.40981167244418 0.0
vertex 9.49453552196496 4.16470524201511 9.99999999999997
vertex 9.49453552196496 4.16470524201511 0.0
endloop
endfacet
facet normal 0.760297882532057 -0.649574576024393 0.0
outer loop
vertex 9.49453552196496 4.16470524201511 9.99999999999997
vertex 9.69096977648485 4.40981167244418 0.0
vertex 9.69096977648485 4.40981167244418 9.99999999999998
endloop
endfacet
facet normal -0.324074848704057 -0.946031443683265 -1.01024045136174e-028
outer loop
vertex 4.07267186578436 2.68242090372048 9.99999999999998
vertex 3.77886027501506 2.79349892907193 0.0
vertex 4.07267186578436 2.68242090372048 0.0
endloop
endfacet
facet normal -0.382837166857943 -0.923815838612969 -1.01024045136174e-028
outer loop
vertex 3.77886027501506 2.79349892907193 0.0
vertex 4.07267186578436 2.68242090372048 9.99999999999998
vertex 3.77886027501506 2.79349892907193 9.99999999999997
endloop
endfacet
facet normal 0.868549054744156 -0.495603207720686 0.0
outer loop
vertex 10.0357913830255 4.93456208353383 -4.51194637207664e-014
vertex 9.8716260527677 4.66676865021668 9.99999999999997
vertex 9.8716260527677 4.66676865021668 -4.51194637207664e-014
endloop
endfacet
facet normal 0.83571598869271 -0.549161894383948 0.0
outer loop
vertex 9.8716260527677 4.66676865021668 9.99999999999997
vertex 10.0357913830255 4.93456208353383 -4.51194637207664e-014
vertex 10.0357913830255 4.93456208353383 9.99999999999998
endloop
endfacet
facet normal -0.0786249884160386 -0.996904263807001 0.0
outer loop
vertex 5.29992116722433 2.42805680310185 9.99999999999997
vertex 4.98771622626963 2.46257713667252 -4.51194637207664e-014
vertex 5.29992116722433 2.42805680310185 -4.51194637207664e-014
endloop
endfacet
facet normal -0.14106597660701 -0.990000197092865 0.0
outer loop
vertex 4.98771622626963 2.46257713667252 -4.51194637207664e-014
vertex 5.29992116722433 2.42805680310185 9.99999999999997
vertex 4.98771622626963 2.46257713667252 9.99999999999999
endloop
endfacet
endsolid untitled
